<svg xmlns="http://www.w3.org/2000/svg" width="2160" height="872" viewBox="0 0 2160 872" version="1.1"><path d="M 0 436 C 0 872.001, 0 872.001, 1080.250 871.750 C 2160.500 871.500, 2160.500 871.500, 2160.751 435.750 C 2161.002 0, 2161.002 0, 1080.501 0 C 0 0, 0 0, 0 436 M 0.495 436.500 C 0.495 676.300, 0.610 774.251, 0.750 654.168 C 0.890 534.086, 0.890 337.886, 0.750 218.168 C 0.610 98.451, 0.495 196.700, 0.495 436.500 M 1019.677 23.656 C 1019.305 24.029, 1019 45.183, 1019 70.667 C 1019 117, 1019 117, 1009.250 117.009 C 1003.888 117.013, 997.130 117.302, 994.234 117.650 C 988.969 118.282, 988.969 118.282, 989.234 145.891 C 989.500 173.500, 989.500 173.500, 1004.212 173.777 C 1018.924 174.053, 1018.924 174.053, 1019.218 269.277 C 1019.512 364.500, 1019.512 364.500, 1021.825 374.500 C 1023.164 380.287, 1025.989 388.345, 1028.532 393.627 C 1032.107 401.056, 1034.147 403.874, 1039.494 408.774 C 1043.189 412.159, 1049.279 416.382, 1053.411 418.423 C 1057.452 420.420, 1065.200 423.275, 1070.629 424.768 C 1080.157 427.388, 1081.334 427.479, 1104.500 427.386 C 1120.533 427.321, 1132.955 426.728, 1141.921 425.598 C 1149.302 424.668, 1155.715 423.676, 1156.171 423.394 C 1156.627 423.113, 1157 407.821, 1157 389.413 C 1157 355.944, 1157 355.944, 1150.250 356.722 C 1146.537 357.150, 1139.214 357.490, 1133.975 357.478 C 1125.651 357.458, 1123.746 357.110, 1118.854 354.717 C 1115.225 352.941, 1112.294 350.588, 1110.516 348.023 C 1108.378 344.938, 1107.577 342.246, 1106.873 335.784 C 1106.377 331.228, 1106.090 293.075, 1106.236 251 C 1106.500 174.500, 1106.500 174.500, 1128 174 C 1149.500 173.500, 1149.500 173.500, 1149.500 145.500 C 1149.500 117.500, 1149.500 117.500, 1128.250 117.230 C 1116.563 117.082, 1106.920 116.857, 1106.823 116.730 C 1106.726 116.604, 1106.388 95.575, 1106.073 70 C 1105.500 23.500, 1105.500 23.500, 1062.927 23.239 C 1039.512 23.096, 1020.050 23.284, 1019.677 23.656 M 1853.246 219.250 C 1853.500 345.500, 1853.500 345.500, 1878 345.500 C 1902.500 345.500, 1902.500 345.500, 1903 275.004 C 1903.500 204.508, 1903.500 204.508, 1908.500 201.791 C 1911.250 200.296, 1915.368 198.788, 1917.651 198.438 C 1919.934 198.089, 1922.707 198.090, 1923.812 198.440 C 1924.917 198.791, 1926.649 200.298, 1927.661 201.789 C 1929.391 204.340, 1929.530 208.671, 1930 275 C 1930.500 345.500, 1930.500 345.500, 1955.500 345.500 C 1980.500 345.500, 1980.500 345.500, 1980.759 295.500 C 1980.901 268, 1980.632 232.900, 1980.161 217.500 C 1979.370 191.614, 1979.129 189.057, 1976.967 183.627 C 1975.640 180.294, 1972.555 175.486, 1969.834 172.509 C 1966.810 169.200, 1963.114 166.435, 1959.823 165.019 C 1956.953 163.785, 1952.106 162.559, 1949.053 162.296 C 1945.892 162.024, 1940.270 162.497, 1936 163.395 C 1931.875 164.262, 1925.350 166.538, 1921.500 168.452 C 1917.650 170.367, 1912.128 173.748, 1909.230 175.966 C 1906.331 178.185, 1903.744 180, 1903.480 180 C 1903.216 180, 1903 160.425, 1903 136.500 C 1903 93, 1903 93, 1877.996 93 C 1852.992 93, 1852.992 93, 1853.246 219.250 M 1672.227 99.779 C 1658.953 100.058, 1658.953 100.058, 1659.227 117.279 C 1659.500 134.500, 1659.500 134.500, 1685 134.500 C 1710.500 134.500, 1710.500 134.500, 1710.149 117.500 C 1709.956 108.150, 1709.731 100.444, 1709.649 100.376 C 1709.567 100.308, 1704.100 100.083, 1697.500 99.876 C 1690.900 99.669, 1679.527 99.626, 1672.227 99.779 M 1762.075 110.776 C 1747 111.052, 1747 111.052, 1747 137.887 C 1747 164.721, 1747 164.721, 1741.750 165.352 C 1738.862 165.699, 1735.037 165.987, 1733.250 165.991 C 1730 166, 1730 166, 1729.826 171.750 C 1729.730 174.912, 1729.772 181.998, 1729.919 187.496 C 1730.066 192.994, 1730.396 197.832, 1730.652 198.246 C 1730.908 198.661, 1734.691 199, 1739.059 199 C 1747 199, 1747 199, 1747 251.369 C 1747 293.667, 1747.292 305.446, 1748.520 312.619 C 1749.402 317.769, 1751.306 324.100, 1753.052 327.688 C 1754.709 331.092, 1757.513 335.101, 1759.282 336.598 C 1761.052 338.095, 1765.200 340.580, 1768.500 342.121 C 1771.800 343.662, 1777.182 345.615, 1780.460 346.461 C 1784.118 347.406, 1790.804 348, 1797.769 348 C 1804.010 348, 1812.353 347.534, 1816.308 346.963 C 1820.264 346.393, 1824.513 345.710, 1825.750 345.444 C 1827.990 344.964, 1828 344.874, 1828 325.488 C 1828 306.014, 1828 306.014, 1818.250 306.232 C 1810.261 306.411, 1807.938 306.114, 1805.386 304.590 C 1803.673 303.566, 1801.535 301.483, 1800.636 299.960 C 1799.181 297.498, 1799 291.752, 1799 248.126 C 1799 199.062, 1799 199.062, 1811.250 198.781 C 1823.500 198.500, 1823.500 198.500, 1823.775 182.281 C 1824.049 166.062, 1824.049 166.062, 1811.775 165.781 C 1799.500 165.500, 1799.500 165.500, 1798.963 138.796 C 1798.667 124.109, 1798.217 111.889, 1797.963 111.642 C 1797.708 111.394, 1792.921 111.035, 1787.325 110.845 C 1781.729 110.655, 1770.366 110.624, 1762.075 110.776 M 132 113.031 C 128.425 113.529, 121.131 115.046, 115.792 116.400 C 110.453 117.755, 102.248 120.738, 97.560 123.028 C 92.871 125.319, 86.890 128.790, 84.268 130.742 C 81.645 132.693, 77.098 136.588, 74.162 139.395 C 71.226 142.203, 66.828 147.272, 64.389 150.660 C 61.949 154.048, 58.348 160.294, 56.386 164.541 C 54.424 168.788, 51.703 176.591, 50.339 181.881 C 48.404 189.389, 47.665 195.670, 46.973 210.500 C 46.485 220.950, 46.068 250.650, 46.045 276.500 C 46.023 302.350, 46.456 329.414, 47.007 336.641 C 47.564 343.935, 49.098 354.070, 50.454 359.419 C 51.799 364.718, 54.874 373.205, 57.288 378.277 C 59.702 383.350, 64.229 390.687, 67.347 394.582 C 70.466 398.478, 75.826 403.914, 79.259 406.663 C 82.691 409.412, 88.200 413.267, 91.500 415.230 C 94.800 417.193, 100.220 419.937, 103.545 421.326 C 106.869 422.716, 113.169 424.766, 117.545 425.883 C 121.920 427, 130.900 428.444, 137.500 429.092 C 144.322 429.762, 155.123 430.020, 162.531 429.689 C 169.698 429.370, 179.148 428.379, 183.531 427.488 C 187.914 426.598, 195.200 424.606, 199.722 423.063 C 204.245 421.520, 211.395 418.287, 215.613 415.879 C 219.830 413.470, 226.356 408.656, 230.115 405.180 C 233.874 401.704, 239.152 395.566, 241.845 391.540 C 244.538 387.514, 248.103 380.654, 249.767 376.297 C 251.431 371.939, 253.595 364.577, 254.577 359.937 C 256.015 353.141, 256.376 346.442, 256.431 325.500 C 256.500 299.500, 256.500 299.500, 215 299.500 C 173.500 299.500, 173.500 299.500, 172.916 327 C 172.515 345.879, 171.919 355.661, 171.013 358.202 C 170.287 360.238, 168.214 363.339, 166.405 365.092 C 164.469 366.969, 161.177 368.772, 158.401 369.477 C 155.646 370.177, 152.044 370.374, 149.735 369.952 C 147.562 369.554, 144.595 368.348, 143.142 367.270 C 141.689 366.193, 139.534 363.607, 138.354 361.524 C 137.174 359.440, 135.708 355.195, 135.097 352.089 C 134.347 348.277, 133.961 321.940, 133.909 270.972 C 133.839 204.187, 134.021 194.672, 135.482 188.307 C 136.460 184.052, 138.305 179.498, 140.002 177.157 C 141.803 174.670, 144.236 172.747, 146.546 171.985 C 148.569 171.317, 152.616 170.969, 155.540 171.212 C 159.370 171.529, 161.888 172.440, 164.547 174.468 C 166.577 176.016, 169.187 179.357, 170.348 181.892 C 172.261 186.069, 172.507 188.836, 172.979 211.500 C 173.500 236.500, 173.500 236.500, 215 236.500 C 256.500 236.500, 256.500 236.500, 256.333 211.500 C 256.178 188.196, 255.992 185.827, 253.598 176.579 C 252.185 171.122, 249.665 163.745, 248 160.185 C 246.334 156.626, 243.005 150.959, 240.603 147.593 C 238.201 144.226, 234.158 139.557, 231.619 137.217 C 229.080 134.877, 223.965 131.027, 220.252 128.663 C 216.538 126.298, 210.800 123.220, 207.500 121.822 C 204.200 120.425, 198.839 118.509, 195.586 117.565 C 192.334 116.621, 186.034 115.170, 181.586 114.340 C 177.089 113.501, 165.733 112.674, 156 112.478 C 146.375 112.283, 135.575 112.532, 132 113.031 M 588.500 112.621 C 586.850 112.872, 581.900 113.762, 577.500 114.600 C 573.100 115.437, 566.575 117.051, 563 118.187 C 559.425 119.323, 552.675 122.218, 548 124.622 C 543.325 127.025, 536.065 131.895, 531.868 135.445 C 527.670 138.994, 521.933 144.959, 519.119 148.699 C 516.305 152.440, 512.233 159.105, 510.070 163.512 C 507.907 167.919, 505.213 175.119, 504.084 179.512 C 502.954 183.905, 501.582 190.650, 501.035 194.500 C 500.453 198.595, 500.033 230.338, 500.024 271 C 500.011 328.605, 500.269 342.112, 501.535 349.916 C 502.375 355.096, 504.206 362.739, 505.603 366.902 C 507.001 371.066, 509.929 377.903, 512.111 382.097 C 514.293 386.290, 518.688 392.822, 521.879 396.611 C 525.069 400.400, 529.664 405.095, 532.090 407.043 C 534.515 408.992, 538.763 412.013, 541.529 413.756 C 544.296 415.499, 549.471 418.241, 553.029 419.849 C 556.588 421.457, 563.100 423.782, 567.500 425.015 C 571.900 426.248, 579.775 427.865, 585 428.609 C 590.225 429.353, 599.912 429.970, 606.526 429.981 C 613.141 429.991, 622.366 429.532, 627.026 428.961 C 631.687 428.389, 639.699 426.815, 644.832 425.463 C 650.040 424.091, 658.502 420.775, 663.983 417.960 C 670.192 414.771, 676.241 410.682, 680.434 406.839 C 684.082 403.497, 689.012 398.228, 691.391 395.131 C 693.770 392.034, 696.669 387.627, 697.834 385.338 C 698.998 383.048, 701.046 378.266, 702.385 374.710 C 703.723 371.154, 705.596 364.477, 706.546 359.872 C 707.857 353.523, 708.301 346.063, 708.387 329 C 708.500 306.500, 708.500 306.500, 675 306.198 C 656.575 306.033, 638.731 306.176, 635.347 306.518 C 629.194 307.138, 629.194 307.138, 628.782 328.819 C 628.415 348.116, 628.142 350.995, 626.296 355 C 625.155 357.475, 622.709 360.935, 620.861 362.689 C 619.012 364.442, 616.233 366.355, 614.685 366.939 C 613.137 367.522, 609.312 367.993, 606.185 367.984 C 602.154 367.972, 599.343 367.312, 596.523 365.714 C 593.682 364.105, 591.756 361.895, 589.785 357.981 C 588.267 354.966, 586.558 349.350, 585.986 345.500 C 585.387 341.464, 585.064 325.374, 585.224 307.500 C 585.500 276.500, 585.500 276.500, 647.250 276.242 C 709 275.985, 709 275.985, 708.990 243.742 C 708.984 226.009, 708.513 206.189, 707.944 199.698 C 707.375 193.207, 705.827 183.632, 704.505 178.421 C 703.183 173.209, 700.107 164.795, 697.670 159.723 C 695.233 154.650, 692.049 148.925, 690.595 147 C 689.141 145.075, 685.600 141.070, 682.726 138.101 C 679.852 135.132, 674.219 130.545, 670.209 127.908 C 666.198 125.271, 659.223 121.684, 654.709 119.937 C 650.194 118.190, 642.450 115.886, 637.500 114.818 C 630.958 113.405, 623.447 112.778, 610 112.520 C 599.825 112.325, 590.150 112.371, 588.500 112.621 M 845 112.695 C 843.075 112.901, 837.700 113.760, 833.055 114.604 C 828.411 115.447, 821.886 117.070, 818.555 118.210 C 815.225 119.349, 809.094 121.982, 804.932 124.061 C 800.769 126.139, 795.144 129.504, 792.432 131.537 C 789.719 133.571, 785.332 137.319, 782.682 139.867 C 780.032 142.415, 775.815 147.567, 773.312 151.315 C 770.808 155.064, 767.310 161.589, 765.539 165.815 C 763.767 170.042, 761.347 177.127, 760.161 181.561 C 758.975 185.994, 757.336 194.319, 756.520 200.061 C 755.704 205.802, 755.028 212.637, 755.018 215.250 C 755 220, 755 220, 759.250 220.018 C 761.587 220.028, 779.425 220.691, 798.889 221.491 C 818.353 222.292, 834.596 222.750, 834.985 222.509 C 835.374 222.269, 836.268 215.868, 836.970 208.286 C 837.673 200.704, 839.103 191.712, 840.147 188.304 C 841.363 184.340, 842.986 181.369, 844.654 180.058 C 846.088 178.930, 849.112 177.508, 851.375 176.899 C 854.425 176.078, 856.836 176.093, 860.694 176.956 C 864.500 177.808, 866.690 179.022, 868.844 181.475 C 870.463 183.319, 872.398 186.555, 873.143 188.664 C 874.117 191.421, 874.498 198.372, 874.499 213.381 C 874.500 234.262, 874.500 234.262, 866.500 237.207 C 862.100 238.827, 852.200 242.640, 844.500 245.680 C 836.800 248.721, 823.750 254.459, 815.500 258.432 C 805.150 263.416, 797.371 268.017, 790.407 273.275 C 784.855 277.466, 777.744 283.669, 774.604 287.061 C 771.464 290.452, 767.064 295.705, 764.827 298.735 C 762.589 301.764, 759.196 307.622, 757.288 311.752 C 755.380 315.883, 752.789 323.366, 751.531 328.381 C 750.273 333.397, 748.953 342, 748.596 347.500 C 748.148 354.424, 748.416 360.533, 749.467 367.361 C 750.364 373.190, 752.361 380.598, 754.350 385.478 C 756.201 390.018, 759.389 396.253, 761.433 399.333 C 763.478 402.414, 768.643 408.211, 772.912 412.217 C 777.565 416.583, 783.293 420.794, 787.211 422.730 C 790.806 424.506, 796.392 426.677, 799.624 427.553 C 802.856 428.429, 810.225 429.389, 816 429.685 C 823.991 430.094, 828.023 429.824, 832.872 428.552 C 836.377 427.634, 842.002 425.579, 845.372 423.986 C 848.743 422.394, 854.082 418.789, 857.238 415.976 C 860.394 413.163, 865.199 407.476, 867.915 403.339 C 870.631 399.202, 874.073 392.945, 875.565 389.435 C 877.057 385.925, 878.665 383.293, 879.139 383.586 C 879.612 383.878, 880 385.126, 880 386.359 C 880 387.592, 879.463 389.137, 878.808 389.792 C 877.893 390.707, 877.602 434.666, 877.558 578.242 C 877.500 765.500, 877.500 765.500, 917.639 765.761 C 949.262 765.967, 957.854 765.755, 958.139 764.761 C 958.337 764.068, 958.260 634.125, 957.966 476 C 957.433 188.500, 957.433 188.500, 955.248 179.250 C 954.047 174.162, 951.867 166.962, 950.405 163.250 C 948.943 159.537, 945.338 152.845, 942.395 148.377 C 939.451 143.910, 934.361 137.772, 931.083 134.737 C 927.805 131.703, 922.464 127.604, 919.214 125.630 C 915.963 123.655, 909.291 120.490, 904.386 118.596 C 898.983 116.509, 891.285 114.530, 884.856 113.576 C 878.720 112.665, 868.813 112.068, 861.372 112.160 C 854.292 112.248, 846.925 112.489, 845 112.695 M 1281 112.650 C 1279.625 112.858, 1274.450 113.762, 1269.500 114.658 C 1264.550 115.554, 1257.350 117.404, 1253.500 118.768 C 1249.650 120.133, 1244.025 122.495, 1241 124.017 C 1237.975 125.539, 1232.800 128.777, 1229.500 131.213 C 1226.200 133.648, 1221.313 137.832, 1218.639 140.510 C 1215.965 143.189, 1212.066 147.657, 1209.974 150.440 C 1207.882 153.223, 1204.513 158.813, 1202.488 162.862 C 1200.463 166.912, 1197.393 175.462, 1195.665 181.862 C 1192.525 193.500, 1192.525 193.500, 1192.513 269.500 C 1192.501 338.900, 1192.657 346.272, 1194.308 354.388 C 1195.303 359.277, 1197.728 367.302, 1199.697 372.222 C 1201.666 377.142, 1205.439 384.479, 1208.080 388.526 C 1210.722 392.573, 1215.558 398.558, 1218.826 401.826 C 1222.094 405.094, 1227.560 409.664, 1230.972 411.981 C 1234.384 414.298, 1240.496 417.707, 1244.555 419.557 C 1248.613 421.406, 1256.111 424.036, 1261.217 425.401 C 1266.323 426.766, 1274.940 428.421, 1280.366 429.079 C 1286.513 429.825, 1296.126 430.055, 1305.866 429.689 C 1314.465 429.366, 1324.875 428.382, 1329 427.502 C 1333.125 426.621, 1338.750 425.210, 1341.500 424.364 C 1344.250 423.519, 1350.100 421.061, 1354.500 418.903 C 1358.900 416.744, 1365.543 412.693, 1369.263 409.900 C 1372.982 407.107, 1378.559 401.599, 1381.657 397.661 C 1384.754 393.722, 1389.023 386.900, 1391.143 382.500 C 1393.263 378.100, 1396.176 370, 1397.617 364.500 C 1400.065 355.149, 1400.244 352.941, 1400.368 330.500 C 1400.500 306.500, 1400.500 306.500, 1368 306.196 C 1350.125 306.029, 1332.275 306.176, 1328.334 306.524 C 1321.167 307.155, 1321.167 307.155, 1320.808 328.827 C 1320.509 346.874, 1320.151 351.169, 1318.674 354.500 C 1317.697 356.700, 1315.459 360.016, 1313.699 361.869 C 1311.940 363.722, 1309.052 365.860, 1307.282 366.619 C 1305.512 367.379, 1301.462 367.998, 1298.282 367.996 C 1294.355 367.994, 1291.495 367.379, 1289.366 366.081 C 1287.642 365.030, 1285.095 362.669, 1283.705 360.835 C 1282.315 359.001, 1280.363 354.800, 1279.366 351.500 C 1277.771 346.217, 1277.551 341.379, 1277.527 311 C 1277.500 276.500, 1277.500 276.500, 1339.357 276.242 C 1401.215 275.985, 1401.215 275.985, 1400.725 234.742 C 1400.292 198.211, 1400.006 192.472, 1398.224 184.500 C 1397.117 179.550, 1394.886 171.897, 1393.264 167.493 C 1391.643 163.089, 1388.467 156.441, 1386.207 152.720 C 1383.946 148.999, 1380.435 143.927, 1378.405 141.450 C 1376.375 138.972, 1371.741 134.714, 1368.107 131.987 C 1364.473 129.260, 1359.002 125.694, 1355.950 124.062 C 1352.897 122.431, 1346.226 119.698, 1341.125 117.989 C 1336.024 116.280, 1327.047 114.242, 1321.175 113.460 C 1315.304 112.679, 1304.425 112.092, 1297 112.156 C 1289.575 112.220, 1282.375 112.443, 1281 112.650 M 442 115.591 C 438.975 116.394, 434.025 118.236, 431 119.683 C 427.474 121.370, 422.616 125.220, 417.465 130.408 C 413.046 134.858, 406.474 142.775, 402.862 148 C 399.249 153.225, 395.059 159.637, 393.551 162.250 C 392.044 164.863, 390.515 167, 390.155 167 C 389.795 166.999, 389.573 156.358, 389.662 143.353 C 389.751 130.347, 389.591 119.097, 389.305 118.353 C 388.881 117.249, 381.871 117.002, 351.143 117.009 C 330.439 117.013, 311.136 117.301, 308.247 117.648 C 302.994 118.279, 302.994 118.279, 303.247 271.390 C 303.500 424.500, 303.500 424.500, 346.500 424.500 C 389.500 424.500, 389.500 424.500, 390 324.219 C 390.500 223.937, 390.500 223.937, 396.809 216.977 C 400.278 213.149, 405.958 207.990, 409.431 205.512 C 412.904 203.034, 418.840 199.784, 422.623 198.289 C 428.713 195.883, 430.816 195.574, 441 195.592 C 450.173 195.607, 453.916 196.068, 459.500 197.872 C 463.350 199.115, 467.063 200.365, 467.750 200.650 C 468.739 201.059, 469 192.181, 469 158.190 C 469 119.924, 468.827 115.147, 467.418 114.607 C 466.548 114.273, 461.711 114.030, 456.668 114.066 C 451.626 114.102, 445.025 114.789, 442 115.591 M 1469.750 165.727 C 1465.987 165.971, 1464 166.536, 1464 167.361 C 1464 168.054, 1464.876 174.894, 1465.946 182.561 C 1467.016 190.227, 1471.940 223.950, 1476.888 257.500 C 1481.836 291.050, 1486.622 323.630, 1487.524 329.899 C 1488.425 336.169, 1489.569 342.365, 1490.064 343.669 C 1490.966 346.041, 1490.966 346.041, 1511.625 345.770 C 1528.778 345.546, 1532.418 345.245, 1533.076 344 C 1533.511 343.175, 1536.650 325.850, 1540.049 305.500 C 1543.449 285.150, 1547.130 263.668, 1548.229 257.761 C 1549.329 251.855, 1550.627 247.269, 1551.114 247.570 C 1551.601 247.872, 1552 249.381, 1552 250.925 C 1552 252.469, 1553.545 263.805, 1555.434 276.116 C 1557.322 288.427, 1560.291 307.857, 1562.032 319.293 C 1563.772 330.729, 1565.521 341.304, 1565.919 342.793 C 1566.643 345.500, 1566.643 345.500, 1587.500 345.771 C 1598.972 345.920, 1608.712 345.688, 1609.144 345.256 C 1609.576 344.824, 1610.840 338.627, 1611.953 331.485 C 1613.065 324.343, 1616.212 303.425, 1618.946 285 C 1621.679 266.575, 1626.635 233.139, 1629.958 210.697 C 1633.281 188.255, 1636 168.905, 1636 167.697 C 1636 165.511, 1635.904 165.500, 1617.494 165.556 C 1607.058 165.587, 1598.569 166.031, 1598.027 166.573 C 1597.498 167.102, 1593.805 190.120, 1589.821 217.723 C 1585.837 245.326, 1582.446 267.780, 1582.286 267.619 C 1582.125 267.459, 1581.342 262.385, 1580.545 256.343 C 1579.749 250.302, 1577.238 229.416, 1574.967 209.930 C 1572.696 190.443, 1570.534 172.475, 1570.162 170 C 1569.486 165.500, 1569.486 165.500, 1551.690 165.636 C 1541.903 165.711, 1533.684 165.983, 1533.426 166.241 C 1533.168 166.499, 1530.034 188.038, 1526.461 214.105 C 1522.889 240.172, 1519.554 262.400, 1519.051 263.500 C 1518.288 265.166, 1518.124 264.902, 1518.068 261.924 C 1518.030 259.957, 1517.308 253.432, 1516.462 247.424 C 1515.616 241.416, 1513.145 222.550, 1510.971 205.500 C 1508.797 188.450, 1506.665 172.475, 1506.232 170 C 1505.447 165.500, 1505.447 165.500, 1490.473 165.427 C 1482.238 165.386, 1472.912 165.521, 1469.750 165.727 M 1666.245 165.713 C 1659.989 166.096, 1659.989 166.096, 1660.245 255.798 C 1660.500 345.500, 1660.500 345.500, 1685.173 345.767 C 1707.686 346.011, 1709.875 345.886, 1710.173 344.342 C 1710.353 343.411, 1710.275 302.790, 1710 254.075 C 1709.500 165.500, 1709.500 165.500, 1691 165.415 C 1680.825 165.368, 1669.685 165.502, 1666.245 165.713 M 598.263 174.967 C 595.417 176.259, 593.082 178.377, 591.155 181.416 C 589.577 183.905, 587.659 188.767, 586.893 192.220 C 585.979 196.341, 585.500 204.860, 585.500 217 C 585.500 235.500, 585.500 235.500, 607.348 235.770 C 629.196 236.040, 629.196 236.040, 628.758 214.270 C 628.409 196.939, 627.968 191.549, 626.595 187.837 C 625.647 185.273, 623.319 181.576, 621.421 179.622 C 619.234 177.369, 616.079 175.507, 612.804 174.534 C 609.962 173.690, 606.481 173.010, 605.068 173.022 C 603.656 173.034, 600.593 173.910, 598.263 174.967 M 1290.401 174.847 C 1288.147 175.903, 1285.387 178.057, 1284.269 179.633 C 1283.151 181.210, 1281.470 184.750, 1280.533 187.500 C 1279.596 190.250, 1278.400 196.775, 1277.874 202 C 1277.349 207.225, 1277.049 216.900, 1277.209 223.500 C 1277.500 235.500, 1277.500 235.500, 1299.333 235.770 C 1321.167 236.039, 1321.167 236.039, 1320.833 213.695 C 1320.500 191.351, 1320.500 191.351, 1317.485 185.459 C 1315.257 181.105, 1313.298 178.847, 1309.985 176.810 C 1307.153 175.069, 1303.473 173.845, 1300 173.490 C 1295.788 173.059, 1293.540 173.377, 1290.401 174.847 M 863.200 279.180 C 857.535 283.078, 849.575 289.561, 845.511 293.586 C 840.924 298.128, 836.589 303.672, 834.081 308.202 C 831.802 312.319, 829.331 318.678, 828.411 322.790 C 827.262 327.932, 826.901 333.235, 827.187 340.790 C 827.503 349.147, 828.088 352.598, 829.850 356.500 C 831.091 359.250, 833.321 362.779, 834.804 364.342 C 836.287 365.904, 839.170 368.042, 841.210 369.092 C 843.730 370.388, 846.986 371, 851.360 371 C 857.086 371, 858.387 370.605, 863.104 367.430 C 866.022 365.466, 869.873 362.204, 871.663 360.180 C 874.917 356.500, 874.917 356.500, 874.958 314.250 C 874.981 291.012, 874.663 272.021, 874.250 272.046 C 873.837 272.072, 868.865 275.282, 863.200 279.180 M 1998.697 364.636 C 1998.314 365.020, 1998 386.183, 1998 411.667 C 1998 458, 1998 458, 1990.651 458 C 1986.609 458, 1979.852 458.292, 1975.635 458.648 C 1967.969 459.296, 1967.969 459.296, 1968.234 486.898 C 1968.500 514.500, 1968.500 514.500, 1983.250 514.777 C 1998 515.053, 1998 515.053, 1998.017 603.277 C 1998.027 654.345, 1998.452 695.501, 1999.025 701 C 1999.570 706.225, 2000.961 714.325, 2002.116 719 C 2003.271 723.675, 2005.670 730.650, 2007.448 734.500 C 2009.227 738.350, 2012.764 743.800, 2015.309 746.612 C 2017.855 749.424, 2022.764 753.558, 2026.219 755.799 C 2029.673 758.040, 2035.875 760.996, 2040 762.366 C 2044.125 763.737, 2051.325 765.678, 2056 766.679 C 2062.705 768.116, 2068.934 768.497, 2085.500 768.488 C 2100.196 768.479, 2110.928 767.907, 2121.250 766.580 C 2136 764.684, 2136 764.684, 2136 730.814 C 2136 696.944, 2136 696.944, 2129.250 697.722 C 2125.537 698.150, 2118.120 698.462, 2112.766 698.417 C 2104.072 698.342, 2102.423 698.022, 2097.324 695.414 C 2092.656 693.026, 2091.150 691.590, 2089.058 687.527 C 2086.500 682.559, 2086.500 682.559, 2085.855 607.529 C 2085.501 566.263, 2085.453 528.563, 2085.749 523.750 C 2086.287 515, 2086.287 515, 2107.643 515 C 2129 515, 2129 515, 2129 487 C 2129 459, 2129 459, 2125.750 458.855 C 2123.963 458.775, 2115.300 458.594, 2106.500 458.453 C 2097.700 458.311, 2089.553 458.152, 2088.395 458.098 C 2086.294 458, 2086.288 457.900, 2085.779 411.968 C 2085.499 386.650, 2084.946 365.613, 2084.552 365.218 C 2084.158 364.823, 2064.836 364.374, 2041.615 364.219 C 2018.394 364.065, 1999.081 364.252, 1998.697 364.636 M 1344 454.008 C 1339.875 454.409, 1333.800 455.299, 1330.500 455.986 C 1327.200 456.673, 1321.350 458.357, 1317.500 459.728 C 1313.650 461.100, 1306.598 464.224, 1301.828 466.672 C 1296.715 469.296, 1290.442 473.609, 1286.542 477.183 C 1282.903 480.517, 1277.911 486.069, 1275.448 489.521 C 1272.985 492.973, 1269.011 500.005, 1266.618 505.148 C 1264.224 510.292, 1261.514 517.291, 1260.595 520.702 C 1259.675 524.113, 1258.278 530.574, 1257.489 535.060 C 1256.701 539.545, 1255.754 547.217, 1255.384 552.108 C 1254.713 561, 1254.713 561, 1257.607 561.022 C 1259.198 561.034, 1274.450 561.701, 1291.500 562.504 C 1308.550 563.307, 1325.479 563.972, 1329.121 563.982 C 1335.742 564, 1335.742 564, 1336.410 555.750 C 1336.777 551.212, 1337.546 543.909, 1338.118 539.521 C 1338.690 535.133, 1340.229 529.278, 1341.538 526.511 C 1343.017 523.384, 1345.164 520.734, 1347.209 519.509 C 1349.507 518.133, 1352.310 517.539, 1356.500 517.539 C 1360.692 517.539, 1363.493 518.133, 1365.795 519.512 C 1367.877 520.758, 1370.086 523.512, 1371.795 526.992 C 1374.479 532.457, 1374.500 532.668, 1374.500 553.858 C 1374.500 575.216, 1374.500 575.216, 1371 576.548 C 1369.075 577.281, 1359.625 580.888, 1350 584.565 C 1340.375 588.241, 1326.039 594.333, 1318.143 598.103 C 1310.246 601.874, 1299.960 607.504, 1295.284 610.615 C 1290.608 613.726, 1282.842 620.212, 1278.027 625.027 C 1273.212 629.842, 1266.778 637.544, 1263.730 642.141 C 1260.682 646.738, 1257.005 653.425, 1255.560 657 C 1254.115 660.575, 1252.237 666.425, 1251.388 670 C 1250.539 673.575, 1249.436 681, 1248.937 686.500 C 1248.338 693.110, 1248.398 699.541, 1249.116 705.471 C 1249.713 710.404, 1251.100 717.379, 1252.199 720.971 C 1253.298 724.562, 1255.726 730.425, 1257.595 734 C 1259.464 737.575, 1263.037 743.101, 1265.535 746.280 C 1268.033 749.460, 1272.872 754.135, 1276.288 756.670 C 1279.705 759.205, 1285.650 762.767, 1289.500 764.586 C 1293.350 766.405, 1299.969 768.592, 1304.208 769.447 C 1308.447 770.301, 1315.422 770.993, 1319.708 770.985 C 1323.994 770.977, 1330.383 770.291, 1333.907 769.460 C 1337.431 768.630, 1343.056 766.503, 1346.407 764.735 C 1349.924 762.879, 1355.693 758.344, 1360.050 754.010 C 1366.460 747.635, 1368.424 744.808, 1373.050 735.300 C 1376.048 729.140, 1378.780 724.077, 1379.123 724.050 C 1379.465 724.022, 1379.984 726.138, 1380.276 728.750 C 1380.567 731.362, 1381.753 739.800, 1382.910 747.500 C 1384.068 755.200, 1385.246 762.518, 1385.529 763.762 C 1386.044 766.024, 1386.044 766.024, 1424.272 765.762 C 1462.500 765.500, 1462.500 765.500, 1462.247 761.500 C 1462.107 759.300, 1461.257 750.975, 1460.356 743 C 1459.004 731.027, 1458.594 710.988, 1458.002 628 C 1457.503 558.120, 1456.933 525.977, 1456.132 522.500 C 1455.499 519.750, 1454.252 515.250, 1453.361 512.500 C 1452.471 509.750, 1450.628 504.800, 1449.266 501.500 C 1447.904 498.200, 1444.817 492.521, 1442.405 488.881 C 1439.993 485.240, 1434.902 479.320, 1431.091 475.725 C 1427.281 472.130, 1421.102 467.477, 1417.360 465.385 C 1413.619 463.293, 1406.270 460.126, 1401.029 458.347 C 1395.331 456.413, 1387.596 454.689, 1381.789 454.057 C 1376.449 453.475, 1367.449 453.063, 1361.789 453.140 C 1356.130 453.217, 1348.125 453.608, 1344 454.008 M 1575.763 454.506 C 1571.508 455.315, 1564.772 457.115, 1560.795 458.504 C 1556.818 459.894, 1549.433 463.319, 1544.383 466.117 C 1539.334 468.914, 1532.328 473.744, 1528.815 476.851 C 1525.302 479.958, 1520.305 484.975, 1517.710 488 C 1515.115 491.025, 1511.005 497.550, 1508.577 502.500 C 1506.148 507.450, 1503.368 514.650, 1502.399 518.500 C 1501.192 523.295, 1500.644 529.281, 1500.661 537.500 C 1500.676 544.983, 1501.324 552.414, 1502.382 557.241 C 1503.314 561.499, 1505.329 568.059, 1506.859 571.818 C 1508.389 575.577, 1512.084 582.218, 1515.070 586.574 C 1518.057 590.931, 1526.125 600.148, 1533 607.056 C 1539.875 613.964, 1556.300 628.630, 1569.500 639.647 C 1582.700 650.663, 1596.954 662.912, 1601.174 666.867 C 1605.395 670.821, 1610.251 676.172, 1611.964 678.759 C 1613.677 681.345, 1615.765 685.822, 1616.604 688.708 C 1617.615 692.188, 1617.897 695.503, 1617.440 698.549 C 1617.046 701.180, 1615.686 704.408, 1614.257 706.107 C 1612.884 707.738, 1610.353 709.808, 1608.631 710.707 C 1606.552 711.793, 1602.977 712.347, 1597.992 712.356 C 1592.001 712.366, 1589.331 711.840, 1584.774 709.754 C 1581.634 708.316, 1576.783 705.006, 1573.994 702.398 C 1571.206 699.790, 1566.926 694.649, 1564.482 690.973 C 1562.038 687.297, 1558.402 680.843, 1556.402 676.631 C 1554.402 672.419, 1552.474 668.793, 1552.118 668.573 C 1551.762 668.353, 1544.503 671.303, 1535.986 675.129 C 1527.469 678.955, 1514.541 684.653, 1507.259 687.792 C 1499.976 690.932, 1494.014 693.998, 1494.009 694.607 C 1494.004 695.216, 1496.064 699.941, 1498.586 705.107 C 1501.108 710.273, 1506.028 718.775, 1509.518 724 C 1513.008 729.225, 1517.983 735.896, 1520.574 738.825 C 1523.165 741.753, 1528.168 746.331, 1531.691 748.998 C 1535.214 751.665, 1542.013 755.861, 1546.798 758.323 C 1551.584 760.784, 1558.533 763.728, 1562.241 764.864 C 1565.948 766, 1572.923 767.642, 1577.741 768.514 C 1582.558 769.386, 1592.662 770.368, 1600.194 770.696 C 1609.169 771.087, 1616.579 770.861, 1621.694 770.042 C 1625.987 769.354, 1633.100 767.663, 1637.500 766.284 C 1641.900 764.905, 1649.087 761.993, 1653.472 759.812 C 1657.857 757.631, 1663.074 754.643, 1665.066 753.173 C 1667.058 751.703, 1670.242 749.131, 1672.142 747.458 C 1674.042 745.784, 1678.233 741.308, 1681.455 737.510 C 1684.677 733.712, 1688.842 727.295, 1690.711 723.250 C 1692.579 719.206, 1695.022 712.433, 1696.139 708.198 C 1697.621 702.584, 1698.183 697.251, 1698.215 688.500 C 1698.244 680.662, 1697.688 674.110, 1696.611 669.608 C 1695.705 665.817, 1693.240 659.067, 1691.133 654.608 C 1689.027 650.148, 1685.101 643.575, 1682.408 640 C 1679.716 636.425, 1673.685 629.500, 1669.006 624.611 C 1664.328 619.722, 1653.300 609.354, 1644.500 601.571 C 1635.700 593.787, 1623.775 583.411, 1618 578.513 C 1612.225 573.614, 1603.567 566.050, 1598.761 561.705 C 1593.954 557.359, 1587.991 551.102, 1585.509 547.801 C 1583.028 544.499, 1580.319 539.464, 1579.489 536.611 C 1578.153 532.016, 1578.150 530.857, 1579.463 526.435 C 1580.364 523.404, 1582.282 520.149, 1584.352 518.144 C 1586.374 516.184, 1589.474 514.456, 1591.977 513.894 C 1594.297 513.373, 1597.839 513.240, 1599.848 513.599 C 1601.856 513.959, 1605.836 515.341, 1608.690 516.671 C 1611.772 518.106, 1615.909 521.308, 1618.875 524.553 C 1621.622 527.559, 1625.890 533.276, 1628.359 537.259 C 1630.829 541.242, 1634.072 547.497, 1635.566 551.161 C 1638.282 557.821, 1638.282 557.821, 1645.391 554.565 C 1649.301 552.773, 1661.612 547.112, 1672.750 541.983 C 1687.316 535.276, 1693 532.189, 1693 530.983 C 1693 530.062, 1691.715 525.751, 1690.143 521.404 C 1688.572 517.057, 1685.811 510.575, 1684.007 507 C 1682.202 503.425, 1678.906 497.800, 1676.682 494.500 C 1674.457 491.200, 1669.681 485.398, 1666.069 481.606 C 1662.456 477.814, 1655.564 472.109, 1650.753 468.929 C 1645.942 465.750, 1638.517 461.812, 1634.253 460.179 C 1629.989 458.547, 1622.900 456.475, 1618.500 455.576 C 1614.100 454.676, 1604.425 453.736, 1597 453.487 C 1587.567 453.170, 1581.169 453.477, 1575.763 454.506 M 1826.500 453.656 C 1824.850 453.853, 1819.900 454.492, 1815.500 455.078 C 1811.100 455.663, 1803.486 457.478, 1798.580 459.109 C 1793.673 460.741, 1786.208 463.871, 1781.991 466.066 C 1777.773 468.260, 1771.433 472.438, 1767.903 475.350 C 1764.372 478.262, 1758.923 483.988, 1755.793 488.074 C 1752.663 492.161, 1748.289 499.375, 1746.071 504.106 C 1743.854 508.838, 1740.733 517.837, 1739.136 524.104 C 1737.538 530.372, 1735.654 540.803, 1734.949 547.284 C 1734.170 554.454, 1734.028 559.428, 1734.588 559.988 C 1735.093 560.493, 1745.631 561.369, 1758.004 561.933 C 1770.377 562.497, 1788.263 563.263, 1797.750 563.635 C 1812.222 564.204, 1815.003 564.086, 1815.020 562.906 C 1815.031 562.133, 1815.686 555.145, 1816.476 547.378 C 1817.267 539.612, 1818.675 531.287, 1819.606 528.878 C 1820.538 526.470, 1822.448 523.255, 1823.852 521.734 C 1825.256 520.213, 1828.194 518.486, 1830.381 517.897 C 1832.568 517.308, 1836.204 517.103, 1838.461 517.442 C 1840.718 517.780, 1843.952 518.900, 1845.646 519.931 C 1847.361 520.974, 1849.785 523.953, 1851.113 526.652 C 1853.409 531.315, 1853.500 532.338, 1853.500 553.417 C 1853.500 575.333, 1853.500 575.333, 1834.495 582.514 C 1824.043 586.463, 1809.629 592.369, 1802.465 595.638 C 1795.301 598.908, 1786.477 603.239, 1782.857 605.263 C 1779.238 607.287, 1774.023 610.644, 1771.269 612.722 C 1768.515 614.800, 1764.515 618.102, 1762.381 620.060 C 1760.246 622.018, 1755.788 626.539, 1752.474 630.107 C 1749.160 633.675, 1744.393 639.723, 1741.881 643.547 C 1739.370 647.371, 1736.092 653.569, 1734.598 657.319 C 1733.104 661.070, 1731.001 668.171, 1729.925 673.101 C 1728.699 678.719, 1727.929 686.250, 1727.862 693.282 C 1727.804 699.452, 1728.265 707.200, 1728.888 710.500 C 1729.511 713.800, 1730.672 718.646, 1731.468 721.268 C 1732.264 723.891, 1734.260 728.854, 1735.903 732.297 C 1737.547 735.741, 1741.127 741.511, 1743.859 745.120 C 1746.591 748.729, 1751.946 753.995, 1755.759 756.821 C 1759.572 759.648, 1765.574 763.293, 1769.096 764.920 C 1772.618 766.548, 1779.100 768.609, 1783.500 769.500 C 1787.900 770.392, 1794.959 771.114, 1799.186 771.105 C 1803.414 771.095, 1809.714 770.355, 1813.186 769.460 C 1816.659 768.564, 1822.039 766.483, 1825.142 764.834 C 1828.246 763.185, 1833.274 759.618, 1836.316 756.906 C 1839.358 754.195, 1843.398 749.844, 1845.295 747.238 C 1847.191 744.632, 1850.316 739.575, 1852.240 736 C 1854.163 732.425, 1856.030 728.263, 1856.388 726.750 C 1856.745 725.237, 1857.420 724, 1857.887 724 C 1858.354 724, 1858.980 725.688, 1859.277 727.750 C 1859.574 729.813, 1860.778 738.250, 1861.953 746.500 C 1863.127 754.750, 1864.511 762.518, 1865.028 763.762 C 1865.968 766.024, 1865.968 766.024, 1903.734 765.762 C 1941.500 765.500, 1941.500 765.500, 1941.429 762 C 1941.389 760.075, 1940.538 751.075, 1939.536 742 C 1937.954 727.660, 1937.626 712.408, 1937.035 625.500 C 1936.355 525.500, 1936.355 525.500, 1933.746 516.433 C 1932.311 511.446, 1929.986 504.764, 1928.580 501.585 C 1927.174 498.406, 1923.980 492.731, 1921.482 488.974 C 1918.985 485.217, 1913.579 479.003, 1909.470 475.166 C 1904.098 470.149, 1899.401 466.914, 1892.750 463.652 C 1887.662 461.157, 1880.350 458.199, 1876.500 457.080 C 1872.650 455.960, 1865.687 454.584, 1861.026 454.022 C 1856.366 453.460, 1847.366 453.067, 1841.026 453.150 C 1834.687 453.232, 1828.150 453.460, 1826.500 453.656 M 819.870 455.071 C 816.773 455.526, 811.667 456.803, 808.522 457.908 C 805.376 459.013, 800.604 461.329, 797.916 463.054 C 795.228 464.778, 789.701 469.728, 785.633 474.052 C 781.565 478.376, 774.817 487.049, 770.637 493.326 C 766.458 499.602, 762.756 505.471, 762.412 506.369 C 762.068 507.266, 761.497 508, 761.143 508 C 760.789 508.001, 760.597 496.980, 760.715 483.511 C 760.930 459.021, 760.930 459.021, 758.708 458.463 C 757.487 458.156, 738.040 458.039, 715.494 458.203 C 674.500 458.500, 674.500 458.500, 674.500 612 C 674.500 765.500, 674.500 765.500, 717.500 765.500 C 760.500 765.500, 760.500 765.500, 760.500 665.960 C 760.500 569.769, 760.564 566.321, 762.405 563.460 C 763.454 561.832, 767.321 557.575, 770.999 554 C 774.678 550.425, 780.570 545.799, 784.094 543.719 C 787.617 541.640, 792.975 539.167, 796 538.223 C 799.721 537.063, 804.897 536.507, 812 536.504 C 820.136 536.501, 824.125 537.011, 829.717 538.769 C 833.687 540.017, 837.625 541.302, 838.467 541.626 C 839.830 542.149, 840 537.422, 840 499.126 C 840 456.038, 840 456.038, 837.750 455.579 C 836.513 455.327, 833.250 454.924, 830.500 454.683 C 827.750 454.442, 822.966 454.617, 819.870 455.071 M 993.398 459.406 C 993.096 460.192, 994.428 466.385, 996.357 473.168 C 998.286 479.951, 1003.694 499.225, 1008.374 516 C 1013.054 532.775, 1023.915 571.700, 1032.508 602.500 C 1041.101 633.300, 1052.839 675.271, 1058.591 695.768 C 1064.344 716.265, 1070.133 737.640, 1071.455 743.268 C 1072.778 748.896, 1074.356 757.158, 1074.961 761.630 C 1075.755 767.492, 1075.760 771.118, 1074.978 774.630 C 1074.382 777.308, 1072.924 780.923, 1071.738 782.662 C 1070.552 784.401, 1067.811 786.973, 1065.646 788.376 C 1063.482 789.780, 1058.513 791.629, 1054.605 792.486 C 1050.697 793.343, 1042.775 794.372, 1037 794.772 C 1026.500 795.500, 1026.500 795.500, 1026.500 825 C 1026.500 854.500, 1026.500 854.500, 1044 854.458 C 1053.625 854.435, 1065.325 853.847, 1070 853.152 C 1074.675 852.457, 1082.100 850.973, 1086.500 849.853 C 1090.900 848.733, 1099 845.601, 1104.500 842.892 C 1110 840.183, 1117.296 835.726, 1120.714 832.987 C 1124.131 830.248, 1129.234 824.968, 1132.053 821.254 C 1134.872 817.539, 1139.142 810.450, 1141.541 805.500 C 1143.940 800.550, 1147.075 792.900, 1148.508 788.500 C 1149.941 784.100, 1152.693 773.750, 1154.624 765.500 C 1156.555 757.250, 1158.976 746.675, 1160.002 742 C 1161.029 737.325, 1165.518 717.300, 1169.978 697.500 C 1174.438 677.700, 1182.537 641.700, 1187.975 617.500 C 1193.413 593.300, 1201.517 557.300, 1205.983 537.500 C 1210.449 517.700, 1215.876 493.400, 1218.044 483.500 C 1220.212 473.600, 1222.389 464.063, 1222.882 462.306 C 1223.375 460.549, 1223.528 458.862, 1223.223 458.556 C 1222.917 458.250, 1204.797 458, 1182.956 458 C 1152.359 458, 1143.027 458.287, 1142.297 459.250 C 1141.776 459.938, 1139.706 470.625, 1137.698 483 C 1135.690 495.375, 1130.444 527.550, 1126.040 554.500 C 1121.637 581.450, 1117.126 608.697, 1116.017 615.048 C 1114.908 621.399, 1113.993 627.924, 1113.985 629.548 C 1113.976 631.172, 1113.608 633.070, 1113.165 633.767 C 1112.691 634.514, 1109.222 620.790, 1104.698 600.267 C 1100.483 581.145, 1095.026 556.275, 1092.571 545 C 1090.116 533.725, 1085.561 512.800, 1082.450 498.500 C 1079.338 484.200, 1076.023 469.350, 1075.084 465.500 C 1073.376 458.500, 1073.376 458.500, 1033.661 458.239 C 999.984 458.017, 993.863 458.194, 993.398 459.406 M 1366 618.922 C 1361.875 621.624, 1355.362 626.470, 1351.526 629.693 C 1347.691 632.915, 1342.199 638.465, 1339.323 642.026 C 1336.215 645.873, 1332.769 651.746, 1330.831 656.500 C 1327.693 664.195, 1327.567 665.034, 1327.534 678.500 C 1327.502 691.819, 1327.639 692.800, 1330.351 698.670 C 1331.919 702.064, 1334.174 705.755, 1335.363 706.872 C 1336.552 707.988, 1339.721 709.874, 1342.405 711.061 C 1346.275 712.773, 1348.321 713.082, 1352.288 712.556 C 1355.039 712.191, 1358.962 711.040, 1361.006 709.997 C 1363.050 708.954, 1367.035 705.739, 1369.861 702.853 C 1375 697.605, 1375 697.605, 1375 655.803 C 1375 632.811, 1374.662 614.002, 1374.250 614.005 C 1373.838 614.008, 1370.125 616.220, 1366 618.922 M 1842.512 620.768 C 1837.018 624.471, 1828.837 631.175, 1824.331 635.667 C 1817.768 642.208, 1815.348 645.492, 1812.172 652.167 C 1809.991 656.750, 1807.650 663.584, 1806.971 667.354 C 1806.260 671.295, 1805.956 677.881, 1806.255 682.854 C 1806.541 687.609, 1807.457 693.437, 1808.290 695.805 C 1809.122 698.172, 1811.031 701.880, 1812.531 704.044 C 1814.261 706.542, 1817.226 708.942, 1820.647 710.616 C 1825.225 712.856, 1826.809 713.150, 1831.164 712.573 C 1833.983 712.199, 1838.101 710.969, 1840.313 709.840 C 1842.526 708.711, 1846.511 705.555, 1849.168 702.827 C 1854 697.867, 1854 697.867, 1854 655.933 C 1854 632.870, 1853.662 614.008, 1853.250 614.018 C 1852.838 614.028, 1848.005 617.065, 1842.512 620.768" stroke="none" fill="#010001" fill-rule="evenodd"/><path d="M 1019.677 23.656 C 1019.305 24.029, 1019 45.183, 1019 70.667 C 1019 117, 1019 117, 1009.250 117.009 C 1003.888 117.013, 997.130 117.302, 994.234 117.650 C 988.969 118.282, 988.969 118.282, 989.234 145.891 C 989.500 173.500, 989.500 173.500, 1004.212 173.777 C 1018.924 174.053, 1018.924 174.053, 1019.218 269.277 C 1019.512 364.500, 1019.512 364.500, 1021.825 374.500 C 1023.164 380.287, 1025.989 388.345, 1028.532 393.627 C 1032.107 401.056, 1034.147 403.874, 1039.494 408.774 C 1043.189 412.159, 1049.279 416.382, 1053.411 418.423 C 1057.452 420.420, 1065.200 423.275, 1070.629 424.768 C 1080.157 427.388, 1081.334 427.479, 1104.500 427.386 C 1120.533 427.321, 1132.955 426.728, 1141.921 425.598 C 1149.302 424.668, 1155.715 423.676, 1156.171 423.394 C 1156.627 423.113, 1157 407.821, 1157 389.413 C 1157 355.944, 1157 355.944, 1150.250 356.722 C 1146.537 357.150, 1139.214 357.490, 1133.975 357.478 C 1125.651 357.458, 1123.746 357.110, 1118.854 354.717 C 1115.225 352.941, 1112.294 350.588, 1110.516 348.023 C 1108.378 344.938, 1107.577 342.246, 1106.873 335.784 C 1106.377 331.228, 1106.090 293.075, 1106.236 251 C 1106.500 174.500, 1106.500 174.500, 1128 174 C 1149.500 173.500, 1149.500 173.500, 1149.500 145.500 C 1149.500 117.500, 1149.500 117.500, 1128.250 117.230 C 1116.563 117.082, 1106.920 116.857, 1106.823 116.730 C 1106.726 116.604, 1106.388 95.575, 1106.073 70 C 1105.500 23.500, 1105.500 23.500, 1062.927 23.239 C 1039.512 23.096, 1020.050 23.284, 1019.677 23.656 M 1853.246 219.250 C 1853.500 345.500, 1853.500 345.500, 1878 345.500 C 1902.500 345.500, 1902.500 345.500, 1903 275.004 C 1903.500 204.508, 1903.500 204.508, 1908.500 201.791 C 1911.250 200.296, 1915.368 198.788, 1917.651 198.438 C 1919.934 198.089, 1922.707 198.090, 1923.812 198.440 C 1924.917 198.791, 1926.649 200.298, 1927.661 201.789 C 1929.391 204.340, 1929.530 208.671, 1930 275 C 1930.500 345.500, 1930.500 345.500, 1955.500 345.500 C 1980.500 345.500, 1980.500 345.500, 1980.759 295.500 C 1980.901 268, 1980.632 232.900, 1980.161 217.500 C 1979.370 191.614, 1979.129 189.057, 1976.967 183.627 C 1975.640 180.294, 1972.555 175.486, 1969.834 172.509 C 1966.810 169.200, 1963.114 166.435, 1959.823 165.019 C 1956.953 163.785, 1952.106 162.559, 1949.053 162.296 C 1945.892 162.024, 1940.270 162.497, 1936 163.395 C 1931.875 164.262, 1925.350 166.538, 1921.500 168.452 C 1917.650 170.367, 1912.128 173.748, 1909.230 175.966 C 1906.331 178.185, 1903.744 180, 1903.480 180 C 1903.216 180, 1903 160.425, 1903 136.500 C 1903 93, 1903 93, 1877.996 93 C 1852.992 93, 1852.992 93, 1853.246 219.250 M 1672.227 99.779 C 1658.953 100.058, 1658.953 100.058, 1659.227 117.279 C 1659.500 134.500, 1659.500 134.500, 1685 134.500 C 1710.500 134.500, 1710.500 134.500, 1710.149 117.500 C 1709.956 108.150, 1709.731 100.444, 1709.649 100.376 C 1709.567 100.308, 1704.100 100.083, 1697.500 99.876 C 1690.900 99.669, 1679.527 99.626, 1672.227 99.779 M 1762.075 110.776 C 1747 111.052, 1747 111.052, 1747 137.887 C 1747 164.721, 1747 164.721, 1741.750 165.352 C 1738.862 165.699, 1735.037 165.987, 1733.250 165.991 C 1730 166, 1730 166, 1729.826 171.750 C 1729.730 174.912, 1729.772 181.998, 1729.919 187.496 C 1730.066 192.994, 1730.396 197.832, 1730.652 198.246 C 1730.908 198.661, 1734.691 199, 1739.059 199 C 1747 199, 1747 199, 1747 251.369 C 1747 293.667, 1747.292 305.446, 1748.520 312.619 C 1749.402 317.769, 1751.306 324.100, 1753.052 327.688 C 1754.709 331.092, 1757.513 335.101, 1759.282 336.598 C 1761.052 338.095, 1765.200 340.580, 1768.500 342.121 C 1771.800 343.662, 1777.182 345.615, 1780.460 346.461 C 1784.118 347.406, 1790.804 348, 1797.769 348 C 1804.010 348, 1812.353 347.534, 1816.308 346.963 C 1820.264 346.393, 1824.513 345.710, 1825.750 345.444 C 1827.990 344.964, 1828 344.874, 1828 325.488 C 1828 306.014, 1828 306.014, 1818.250 306.232 C 1810.261 306.411, 1807.938 306.114, 1805.386 304.590 C 1803.673 303.566, 1801.535 301.483, 1800.636 299.960 C 1799.181 297.498, 1799 291.752, 1799 248.126 C 1799 199.062, 1799 199.062, 1811.250 198.781 C 1823.500 198.500, 1823.500 198.500, 1823.775 182.281 C 1824.049 166.062, 1824.049 166.062, 1811.775 165.781 C 1799.500 165.500, 1799.500 165.500, 1798.963 138.796 C 1798.667 124.109, 1798.217 111.889, 1797.963 111.642 C 1797.708 111.394, 1792.921 111.035, 1787.325 110.845 C 1781.729 110.655, 1770.366 110.624, 1762.075 110.776 M 132 113.031 C 128.425 113.529, 121.131 115.046, 115.792 116.400 C 110.453 117.755, 102.248 120.738, 97.560 123.028 C 92.871 125.319, 86.890 128.790, 84.268 130.742 C 81.645 132.693, 77.098 136.588, 74.162 139.395 C 71.226 142.203, 66.828 147.272, 64.389 150.660 C 61.949 154.048, 58.348 160.294, 56.386 164.541 C 54.424 168.788, 51.703 176.591, 50.339 181.881 C 48.404 189.389, 47.665 195.670, 46.973 210.500 C 46.485 220.950, 46.068 250.650, 46.045 276.500 C 46.023 302.350, 46.456 329.414, 47.007 336.641 C 47.564 343.935, 49.098 354.070, 50.454 359.419 C 51.799 364.718, 54.874 373.205, 57.288 378.277 C 59.702 383.350, 64.229 390.687, 67.347 394.582 C 70.466 398.478, 75.826 403.914, 79.259 406.663 C 82.691 409.412, 88.200 413.267, 91.500 415.230 C 94.800 417.193, 100.220 419.937, 103.545 421.326 C 106.869 422.716, 113.169 424.766, 117.545 425.883 C 121.920 427, 130.900 428.444, 137.500 429.092 C 144.322 429.762, 155.123 430.020, 162.531 429.689 C 169.698 429.370, 179.148 428.379, 183.531 427.488 C 187.914 426.598, 195.200 424.606, 199.722 423.063 C 204.245 421.520, 211.395 418.287, 215.613 415.879 C 219.830 413.470, 226.356 408.656, 230.115 405.180 C 233.874 401.704, 239.152 395.566, 241.845 391.540 C 244.538 387.514, 248.103 380.654, 249.767 376.297 C 251.431 371.939, 253.595 364.577, 254.577 359.937 C 256.015 353.141, 256.376 346.442, 256.431 325.500 C 256.500 299.500, 256.500 299.500, 215 299.500 C 173.500 299.500, 173.500 299.500, 172.916 327 C 172.515 345.879, 171.919 355.661, 171.013 358.202 C 170.287 360.238, 168.214 363.339, 166.405 365.092 C 164.469 366.969, 161.177 368.772, 158.401 369.477 C 155.646 370.177, 152.044 370.374, 149.735 369.952 C 147.562 369.554, 144.595 368.348, 143.142 367.270 C 141.689 366.193, 139.534 363.607, 138.354 361.524 C 137.174 359.440, 135.708 355.195, 135.097 352.089 C 134.347 348.277, 133.961 321.940, 133.909 270.972 C 133.839 204.187, 134.021 194.672, 135.482 188.307 C 136.460 184.052, 138.305 179.498, 140.002 177.157 C 141.803 174.670, 144.236 172.747, 146.546 171.985 C 148.569 171.317, 152.616 170.969, 155.540 171.212 C 159.370 171.529, 161.888 172.440, 164.547 174.468 C 166.577 176.016, 169.187 179.357, 170.348 181.892 C 172.261 186.069, 172.507 188.836, 172.979 211.500 C 173.500 236.500, 173.500 236.500, 215 236.500 C 256.500 236.500, 256.500 236.500, 256.333 211.500 C 256.178 188.196, 255.992 185.827, 253.598 176.579 C 252.185 171.122, 249.665 163.745, 248 160.185 C 246.334 156.626, 243.005 150.959, 240.603 147.593 C 238.201 144.226, 234.158 139.557, 231.619 137.217 C 229.080 134.877, 223.965 131.027, 220.252 128.663 C 216.538 126.298, 210.800 123.220, 207.500 121.822 C 204.200 120.425, 198.839 118.509, 195.586 117.565 C 192.334 116.621, 186.034 115.170, 181.586 114.340 C 177.089 113.501, 165.733 112.674, 156 112.478 C 146.375 112.283, 135.575 112.532, 132 113.031 M 588.500 112.621 C 586.850 112.872, 581.900 113.762, 577.500 114.600 C 573.100 115.437, 566.575 117.051, 563 118.187 C 559.425 119.323, 552.675 122.218, 548 124.622 C 543.325 127.025, 536.065 131.895, 531.868 135.445 C 527.670 138.994, 521.933 144.959, 519.119 148.699 C 516.305 152.440, 512.233 159.105, 510.070 163.512 C 507.907 167.919, 505.213 175.119, 504.084 179.512 C 502.954 183.905, 501.582 190.650, 501.035 194.500 C 500.453 198.595, 500.033 230.338, 500.024 271 C 500.011 328.605, 500.269 342.112, 501.535 349.916 C 502.375 355.096, 504.206 362.739, 505.603 366.902 C 507.001 371.066, 509.929 377.903, 512.111 382.097 C 514.293 386.290, 518.688 392.822, 521.879 396.611 C 525.069 400.400, 529.664 405.095, 532.090 407.043 C 534.515 408.992, 538.763 412.013, 541.529 413.756 C 544.296 415.499, 549.471 418.241, 553.029 419.849 C 556.588 421.457, 563.100 423.782, 567.500 425.015 C 571.900 426.248, 579.775 427.865, 585 428.609 C 590.225 429.353, 599.912 429.970, 606.526 429.981 C 613.141 429.991, 622.366 429.532, 627.026 428.961 C 631.687 428.389, 639.699 426.815, 644.832 425.463 C 650.040 424.091, 658.502 420.775, 663.983 417.960 C 670.192 414.771, 676.241 410.682, 680.434 406.839 C 684.082 403.497, 689.012 398.228, 691.391 395.131 C 693.770 392.034, 696.669 387.627, 697.834 385.338 C 698.998 383.048, 701.046 378.266, 702.385 374.710 C 703.723 371.154, 705.596 364.477, 706.546 359.872 C 707.857 353.523, 708.301 346.063, 708.387 329 C 708.500 306.500, 708.500 306.500, 675 306.198 C 656.575 306.033, 638.731 306.176, 635.347 306.518 C 629.194 307.138, 629.194 307.138, 628.782 328.819 C 628.415 348.116, 628.142 350.995, 626.296 355 C 625.155 357.475, 622.709 360.935, 620.861 362.689 C 619.012 364.442, 616.233 366.355, 614.685 366.939 C 613.137 367.522, 609.312 367.993, 606.185 367.984 C 602.154 367.972, 599.343 367.312, 596.523 365.714 C 593.682 364.105, 591.756 361.895, 589.785 357.981 C 588.267 354.966, 586.558 349.350, 585.986 345.500 C 585.387 341.464, 585.064 325.374, 585.224 307.500 C 585.500 276.500, 585.500 276.500, 647.250 276.242 C 709 275.985, 709 275.985, 708.990 243.742 C 708.984 226.009, 708.513 206.189, 707.944 199.698 C 707.375 193.207, 705.827 183.632, 704.505 178.421 C 703.183 173.209, 700.107 164.795, 697.670 159.723 C 695.233 154.650, 692.049 148.925, 690.595 147 C 689.141 145.075, 685.600 141.070, 682.726 138.101 C 679.852 135.132, 674.219 130.545, 670.209 127.908 C 666.198 125.271, 659.223 121.684, 654.709 119.937 C 650.194 118.190, 642.450 115.886, 637.500 114.818 C 630.958 113.405, 623.447 112.778, 610 112.520 C 599.825 112.325, 590.150 112.371, 588.500 112.621 M 845 112.695 C 843.075 112.901, 837.700 113.760, 833.055 114.604 C 828.411 115.447, 821.886 117.070, 818.555 118.210 C 815.225 119.349, 809.094 121.982, 804.932 124.061 C 800.769 126.139, 795.144 129.504, 792.432 131.537 C 789.719 133.571, 785.332 137.319, 782.682 139.867 C 780.032 142.415, 775.815 147.567, 773.312 151.315 C 770.808 155.064, 767.310 161.589, 765.539 165.815 C 763.767 170.042, 761.347 177.127, 760.161 181.561 C 758.975 185.994, 757.336 194.319, 756.520 200.061 C 755.704 205.802, 755.028 212.637, 755.018 215.250 C 755 220, 755 220, 759.250 220.018 C 761.587 220.028, 779.425 220.691, 798.889 221.491 C 818.353 222.292, 834.596 222.750, 834.985 222.509 C 835.374 222.269, 836.268 215.868, 836.970 208.286 C 837.673 200.704, 839.103 191.712, 840.147 188.304 C 841.363 184.340, 842.986 181.369, 844.654 180.058 C 846.088 178.930, 849.112 177.508, 851.375 176.899 C 854.425 176.078, 856.836 176.093, 860.694 176.956 C 864.500 177.808, 866.690 179.022, 868.844 181.475 C 870.463 183.319, 872.398 186.555, 873.143 188.664 C 874.117 191.421, 874.498 198.372, 874.499 213.381 C 874.500 234.262, 874.500 234.262, 866.500 237.207 C 862.100 238.827, 852.200 242.640, 844.500 245.680 C 836.800 248.721, 823.750 254.459, 815.500 258.432 C 805.150 263.416, 797.371 268.017, 790.407 273.275 C 784.855 277.466, 777.744 283.669, 774.604 287.061 C 771.464 290.452, 767.064 295.705, 764.827 298.735 C 762.589 301.764, 759.196 307.622, 757.288 311.752 C 755.380 315.883, 752.789 323.366, 751.531 328.381 C 750.273 333.397, 748.953 342, 748.596 347.500 C 748.148 354.424, 748.416 360.533, 749.467 367.361 C 750.364 373.190, 752.361 380.598, 754.350 385.478 C 756.201 390.018, 759.389 396.253, 761.433 399.333 C 763.478 402.414, 768.643 408.211, 772.912 412.217 C 777.565 416.583, 783.293 420.794, 787.211 422.730 C 790.806 424.506, 796.392 426.677, 799.624 427.553 C 802.856 428.429, 810.225 429.389, 816 429.685 C 823.991 430.094, 828.023 429.824, 832.872 428.552 C 836.377 427.634, 842.002 425.579, 845.372 423.986 C 848.743 422.394, 854.082 418.789, 857.238 415.976 C 860.394 413.163, 865.199 407.476, 867.915 403.339 C 870.631 399.202, 874.073 392.945, 875.565 389.435 C 877.057 385.925, 878.665 383.293, 879.139 383.586 C 879.612 383.878, 880 385.126, 880 386.359 C 880 387.592, 879.463 389.137, 878.808 389.792 C 877.893 390.707, 877.602 434.666, 877.558 578.242 C 877.500 765.500, 877.500 765.500, 917.639 765.761 C 949.262 765.967, 957.854 765.755, 958.139 764.761 C 958.337 764.068, 958.260 634.125, 957.966 476 C 957.433 188.500, 957.433 188.500, 955.248 179.250 C 954.047 174.162, 951.867 166.962, 950.405 163.250 C 948.943 159.537, 945.338 152.845, 942.395 148.377 C 939.451 143.910, 934.361 137.772, 931.083 134.737 C 927.805 131.703, 922.464 127.604, 919.214 125.630 C 915.963 123.655, 909.291 120.490, 904.386 118.596 C 898.983 116.509, 891.285 114.530, 884.856 113.576 C 878.720 112.665, 868.813 112.068, 861.372 112.160 C 854.292 112.248, 846.925 112.489, 845 112.695 M 1281 112.650 C 1279.625 112.858, 1274.450 113.762, 1269.500 114.658 C 1264.550 115.554, 1257.350 117.404, 1253.500 118.768 C 1249.650 120.133, 1244.025 122.495, 1241 124.017 C 1237.975 125.539, 1232.800 128.777, 1229.500 131.213 C 1226.200 133.648, 1221.313 137.832, 1218.639 140.510 C 1215.965 143.189, 1212.066 147.657, 1209.974 150.440 C 1207.882 153.223, 1204.513 158.813, 1202.488 162.862 C 1200.463 166.912, 1197.393 175.462, 1195.665 181.862 C 1192.525 193.500, 1192.525 193.500, 1192.513 269.500 C 1192.501 338.900, 1192.657 346.272, 1194.308 354.388 C 1195.303 359.277, 1197.728 367.302, 1199.697 372.222 C 1201.666 377.142, 1205.439 384.479, 1208.080 388.526 C 1210.722 392.573, 1215.558 398.558, 1218.826 401.826 C 1222.094 405.094, 1227.560 409.664, 1230.972 411.981 C 1234.384 414.298, 1240.496 417.707, 1244.555 419.557 C 1248.613 421.406, 1256.111 424.036, 1261.217 425.401 C 1266.323 426.766, 1274.940 428.421, 1280.366 429.079 C 1286.513 429.825, 1296.126 430.055, 1305.866 429.689 C 1314.465 429.366, 1324.875 428.382, 1329 427.502 C 1333.125 426.621, 1338.750 425.210, 1341.500 424.364 C 1344.250 423.519, 1350.100 421.061, 1354.500 418.903 C 1358.900 416.744, 1365.543 412.693, 1369.263 409.900 C 1372.982 407.107, 1378.559 401.599, 1381.657 397.661 C 1384.754 393.722, 1389.023 386.900, 1391.143 382.500 C 1393.263 378.100, 1396.176 370, 1397.617 364.500 C 1400.065 355.149, 1400.244 352.941, 1400.368 330.500 C 1400.500 306.500, 1400.500 306.500, 1368 306.196 C 1350.125 306.029, 1332.275 306.176, 1328.334 306.524 C 1321.167 307.155, 1321.167 307.155, 1320.808 328.827 C 1320.509 346.874, 1320.151 351.169, 1318.674 354.500 C 1317.697 356.700, 1315.459 360.016, 1313.699 361.869 C 1311.940 363.722, 1309.052 365.860, 1307.282 366.619 C 1305.512 367.379, 1301.462 367.998, 1298.282 367.996 C 1294.355 367.994, 1291.495 367.379, 1289.366 366.081 C 1287.642 365.030, 1285.095 362.669, 1283.705 360.835 C 1282.315 359.001, 1280.363 354.800, 1279.366 351.500 C 1277.771 346.217, 1277.551 341.379, 1277.527 311 C 1277.500 276.500, 1277.500 276.500, 1339.357 276.242 C 1401.215 275.985, 1401.215 275.985, 1400.725 234.742 C 1400.292 198.211, 1400.006 192.472, 1398.224 184.500 C 1397.117 179.550, 1394.886 171.897, 1393.264 167.493 C 1391.643 163.089, 1388.467 156.441, 1386.207 152.720 C 1383.946 148.999, 1380.435 143.927, 1378.405 141.450 C 1376.375 138.972, 1371.741 134.714, 1368.107 131.987 C 1364.473 129.260, 1359.002 125.694, 1355.950 124.062 C 1352.897 122.431, 1346.226 119.698, 1341.125 117.989 C 1336.024 116.280, 1327.047 114.242, 1321.175 113.460 C 1315.304 112.679, 1304.425 112.092, 1297 112.156 C 1289.575 112.220, 1282.375 112.443, 1281 112.650 M 442 115.591 C 438.975 116.394, 434.025 118.236, 431 119.683 C 427.474 121.370, 422.616 125.220, 417.465 130.408 C 413.046 134.858, 406.474 142.775, 402.862 148 C 399.249 153.225, 395.059 159.637, 393.551 162.250 C 392.044 164.863, 390.515 167, 390.155 167 C 389.795 166.999, 389.573 156.358, 389.662 143.353 C 389.751 130.347, 389.591 119.097, 389.305 118.353 C 388.881 117.249, 381.871 117.002, 351.143 117.009 C 330.439 117.013, 311.136 117.301, 308.247 117.648 C 302.994 118.279, 302.994 118.279, 303.247 271.390 C 303.500 424.500, 303.500 424.500, 346.500 424.500 C 389.500 424.500, 389.500 424.500, 390 324.219 C 390.500 223.937, 390.500 223.937, 396.809 216.977 C 400.278 213.149, 405.958 207.990, 409.431 205.512 C 412.904 203.034, 418.840 199.784, 422.623 198.289 C 428.713 195.883, 430.816 195.574, 441 195.592 C 450.173 195.607, 453.916 196.068, 459.500 197.872 C 463.350 199.115, 467.063 200.365, 467.750 200.650 C 468.739 201.059, 469 192.181, 469 158.190 C 469 119.924, 468.827 115.147, 467.418 114.607 C 466.548 114.273, 461.711 114.030, 456.668 114.066 C 451.626 114.102, 445.025 114.789, 442 115.591 M 1469.750 165.727 C 1465.987 165.971, 1464 166.536, 1464 167.361 C 1464 168.054, 1464.876 174.894, 1465.946 182.561 C 1467.016 190.227, 1471.940 223.950, 1476.888 257.500 C 1481.836 291.050, 1486.622 323.630, 1487.524 329.899 C 1488.425 336.169, 1489.569 342.365, 1490.064 343.669 C 1490.966 346.041, 1490.966 346.041, 1511.625 345.770 C 1528.778 345.546, 1532.418 345.245, 1533.076 344 C 1533.511 343.175, 1536.650 325.850, 1540.049 305.500 C 1543.449 285.150, 1547.130 263.668, 1548.229 257.761 C 1549.329 251.855, 1550.627 247.269, 1551.114 247.570 C 1551.601 247.872, 1552 249.381, 1552 250.925 C 1552 252.469, 1553.545 263.805, 1555.434 276.116 C 1557.322 288.427, 1560.291 307.857, 1562.032 319.293 C 1563.772 330.729, 1565.521 341.304, 1565.919 342.793 C 1566.643 345.500, 1566.643 345.500, 1587.500 345.771 C 1598.972 345.920, 1608.712 345.688, 1609.144 345.256 C 1609.576 344.824, 1610.840 338.627, 1611.953 331.485 C 1613.065 324.343, 1616.212 303.425, 1618.946 285 C 1621.679 266.575, 1626.635 233.139, 1629.958 210.697 C 1633.281 188.255, 1636 168.905, 1636 167.697 C 1636 165.511, 1635.904 165.500, 1617.494 165.556 C 1607.058 165.587, 1598.569 166.031, 1598.027 166.573 C 1597.498 167.102, 1593.805 190.120, 1589.821 217.723 C 1585.837 245.326, 1582.446 267.780, 1582.286 267.619 C 1582.125 267.459, 1581.342 262.385, 1580.545 256.343 C 1579.749 250.302, 1577.238 229.416, 1574.967 209.930 C 1572.696 190.443, 1570.534 172.475, 1570.162 170 C 1569.486 165.500, 1569.486 165.500, 1551.690 165.636 C 1541.903 165.711, 1533.684 165.983, 1533.426 166.241 C 1533.168 166.499, 1530.034 188.038, 1526.461 214.105 C 1522.889 240.172, 1519.554 262.400, 1519.051 263.500 C 1518.288 265.166, 1518.124 264.902, 1518.068 261.924 C 1518.030 259.957, 1517.308 253.432, 1516.462 247.424 C 1515.616 241.416, 1513.145 222.550, 1510.971 205.500 C 1508.797 188.450, 1506.665 172.475, 1506.232 170 C 1505.447 165.500, 1505.447 165.500, 1490.473 165.427 C 1482.238 165.386, 1472.912 165.521, 1469.750 165.727 M 1666.245 165.713 C 1659.989 166.096, 1659.989 166.096, 1660.245 255.798 C 1660.500 345.500, 1660.500 345.500, 1685.173 345.767 C 1707.686 346.011, 1709.875 345.886, 1710.173 344.342 C 1710.353 343.411, 1710.275 302.790, 1710 254.075 C 1709.500 165.500, 1709.500 165.500, 1691 165.415 C 1680.825 165.368, 1669.685 165.502, 1666.245 165.713 M 598.263 174.967 C 595.417 176.259, 593.082 178.377, 591.155 181.416 C 589.577 183.905, 587.659 188.767, 586.893 192.220 C 585.979 196.341, 585.500 204.860, 585.500 217 C 585.500 235.500, 585.500 235.500, 607.348 235.770 C 629.196 236.040, 629.196 236.040, 628.758 214.270 C 628.409 196.939, 627.968 191.549, 626.595 187.837 C 625.647 185.273, 623.319 181.576, 621.421 179.622 C 619.234 177.369, 616.079 175.507, 612.804 174.534 C 609.962 173.690, 606.481 173.010, 605.068 173.022 C 603.656 173.034, 600.593 173.910, 598.263 174.967 M 1290.401 174.847 C 1288.147 175.903, 1285.387 178.057, 1284.269 179.633 C 1283.151 181.210, 1281.470 184.750, 1280.533 187.500 C 1279.596 190.250, 1278.400 196.775, 1277.874 202 C 1277.349 207.225, 1277.049 216.900, 1277.209 223.500 C 1277.500 235.500, 1277.500 235.500, 1299.333 235.770 C 1321.167 236.039, 1321.167 236.039, 1320.833 213.695 C 1320.500 191.351, 1320.500 191.351, 1317.485 185.459 C 1315.257 181.105, 1313.298 178.847, 1309.985 176.810 C 1307.153 175.069, 1303.473 173.845, 1300 173.490 C 1295.788 173.059, 1293.540 173.377, 1290.401 174.847 M 863.200 279.180 C 857.535 283.078, 849.575 289.561, 845.511 293.586 C 840.924 298.128, 836.589 303.672, 834.081 308.202 C 831.802 312.319, 829.331 318.678, 828.411 322.790 C 827.262 327.932, 826.901 333.235, 827.187 340.790 C 827.503 349.147, 828.088 352.598, 829.850 356.500 C 831.091 359.250, 833.321 362.779, 834.804 364.342 C 836.287 365.904, 839.170 368.042, 841.210 369.092 C 843.730 370.388, 846.986 371, 851.360 371 C 857.086 371, 858.387 370.605, 863.104 367.430 C 866.022 365.466, 869.873 362.204, 871.663 360.180 C 874.917 356.500, 874.917 356.500, 874.958 314.250 C 874.981 291.012, 874.663 272.021, 874.250 272.046 C 873.837 272.072, 868.865 275.282, 863.200 279.180 M 1998.697 364.636 C 1998.314 365.020, 1998 386.183, 1998 411.667 C 1998 458, 1998 458, 1990.651 458 C 1986.609 458, 1979.852 458.292, 1975.635 458.648 C 1967.969 459.296, 1967.969 459.296, 1968.234 486.898 C 1968.500 514.500, 1968.500 514.500, 1983.250 514.777 C 1998 515.053, 1998 515.053, 1998.017 603.277 C 1998.027 654.345, 1998.452 695.501, 1999.025 701 C 1999.570 706.225, 2000.961 714.325, 2002.116 719 C 2003.271 723.675, 2005.670 730.650, 2007.448 734.500 C 2009.227 738.350, 2012.764 743.800, 2015.309 746.612 C 2017.855 749.424, 2022.764 753.558, 2026.219 755.799 C 2029.673 758.040, 2035.875 760.996, 2040 762.366 C 2044.125 763.737, 2051.325 765.678, 2056 766.679 C 2062.705 768.116, 2068.934 768.497, 2085.500 768.488 C 2100.196 768.479, 2110.928 767.907, 2121.250 766.580 C 2136 764.684, 2136 764.684, 2136 730.814 C 2136 696.944, 2136 696.944, 2129.250 697.722 C 2125.537 698.150, 2118.120 698.462, 2112.766 698.417 C 2104.072 698.342, 2102.423 698.022, 2097.324 695.414 C 2092.656 693.026, 2091.150 691.590, 2089.058 687.527 C 2086.500 682.559, 2086.500 682.559, 2085.855 607.529 C 2085.501 566.263, 2085.453 528.563, 2085.749 523.750 C 2086.287 515, 2086.287 515, 2107.643 515 C 2129 515, 2129 515, 2129 487 C 2129 459, 2129 459, 2125.750 458.855 C 2123.963 458.775, 2115.300 458.594, 2106.500 458.453 C 2097.700 458.311, 2089.553 458.152, 2088.395 458.098 C 2086.294 458, 2086.288 457.900, 2085.779 411.968 C 2085.499 386.650, 2084.946 365.613, 2084.552 365.218 C 2084.158 364.823, 2064.836 364.374, 2041.615 364.219 C 2018.394 364.065, 1999.081 364.252, 1998.697 364.636 M 1344 454.008 C 1339.875 454.409, 1333.800 455.299, 1330.500 455.986 C 1327.200 456.673, 1321.350 458.357, 1317.500 459.728 C 1313.650 461.100, 1306.598 464.224, 1301.828 466.672 C 1296.715 469.296, 1290.442 473.609, 1286.542 477.183 C 1282.903 480.517, 1277.911 486.069, 1275.448 489.521 C 1272.985 492.973, 1269.011 500.005, 1266.618 505.148 C 1264.224 510.292, 1261.514 517.291, 1260.595 520.702 C 1259.675 524.113, 1258.278 530.574, 1257.489 535.060 C 1256.701 539.545, 1255.754 547.217, 1255.384 552.108 C 1254.713 561, 1254.713 561, 1257.607 561.022 C 1259.198 561.034, 1274.450 561.701, 1291.500 562.504 C 1308.550 563.307, 1325.479 563.972, 1329.121 563.982 C 1335.742 564, 1335.742 564, 1336.410 555.750 C 1336.777 551.212, 1337.546 543.909, 1338.118 539.521 C 1338.690 535.133, 1340.229 529.278, 1341.538 526.511 C 1343.017 523.384, 1345.164 520.734, 1347.209 519.509 C 1349.507 518.133, 1352.310 517.539, 1356.500 517.539 C 1360.692 517.539, 1363.493 518.133, 1365.795 519.512 C 1367.877 520.758, 1370.086 523.512, 1371.795 526.992 C 1374.479 532.457, 1374.500 532.668, 1374.500 553.858 C 1374.500 575.216, 1374.500 575.216, 1371 576.548 C 1369.075 577.281, 1359.625 580.888, 1350 584.565 C 1340.375 588.241, 1326.039 594.333, 1318.143 598.103 C 1310.246 601.874, 1299.960 607.504, 1295.284 610.615 C 1290.608 613.726, 1282.842 620.212, 1278.027 625.027 C 1273.212 629.842, 1266.778 637.544, 1263.730 642.141 C 1260.682 646.738, 1257.005 653.425, 1255.560 657 C 1254.115 660.575, 1252.237 666.425, 1251.388 670 C 1250.539 673.575, 1249.436 681, 1248.937 686.500 C 1248.338 693.110, 1248.398 699.541, 1249.116 705.471 C 1249.713 710.404, 1251.100 717.379, 1252.199 720.971 C 1253.298 724.562, 1255.726 730.425, 1257.595 734 C 1259.464 737.575, 1263.037 743.101, 1265.535 746.280 C 1268.033 749.460, 1272.872 754.135, 1276.288 756.670 C 1279.705 759.205, 1285.650 762.767, 1289.500 764.586 C 1293.350 766.405, 1299.969 768.592, 1304.208 769.447 C 1308.447 770.301, 1315.422 770.993, 1319.708 770.985 C 1323.994 770.977, 1330.383 770.291, 1333.907 769.460 C 1337.431 768.630, 1343.056 766.503, 1346.407 764.735 C 1349.924 762.879, 1355.693 758.344, 1360.050 754.010 C 1366.460 747.635, 1368.424 744.808, 1373.050 735.300 C 1376.048 729.140, 1378.780 724.077, 1379.123 724.050 C 1379.465 724.022, 1379.984 726.138, 1380.276 728.750 C 1380.567 731.362, 1381.753 739.800, 1382.910 747.500 C 1384.068 755.200, 1385.246 762.518, 1385.529 763.762 C 1386.044 766.024, 1386.044 766.024, 1424.272 765.762 C 1462.500 765.500, 1462.500 765.500, 1462.247 761.500 C 1462.107 759.300, 1461.257 750.975, 1460.356 743 C 1459.004 731.027, 1458.594 710.988, 1458.002 628 C 1457.503 558.120, 1456.933 525.977, 1456.132 522.500 C 1455.499 519.750, 1454.252 515.250, 1453.361 512.500 C 1452.471 509.750, 1450.628 504.800, 1449.266 501.500 C 1447.904 498.200, 1444.817 492.521, 1442.405 488.881 C 1439.993 485.240, 1434.902 479.320, 1431.091 475.725 C 1427.281 472.130, 1421.102 467.477, 1417.360 465.385 C 1413.619 463.293, 1406.270 460.126, 1401.029 458.347 C 1395.331 456.413, 1387.596 454.689, 1381.789 454.057 C 1376.449 453.475, 1367.449 453.063, 1361.789 453.140 C 1356.130 453.217, 1348.125 453.608, 1344 454.008 M 1575.763 454.506 C 1571.508 455.315, 1564.772 457.115, 1560.795 458.504 C 1556.818 459.894, 1549.433 463.319, 1544.383 466.117 C 1539.334 468.914, 1532.328 473.744, 1528.815 476.851 C 1525.302 479.958, 1520.305 484.975, 1517.710 488 C 1515.115 491.025, 1511.005 497.550, 1508.577 502.500 C 1506.148 507.450, 1503.368 514.650, 1502.399 518.500 C 1501.192 523.295, 1500.644 529.281, 1500.661 537.500 C 1500.676 544.983, 1501.324 552.414, 1502.382 557.241 C 1503.314 561.499, 1505.329 568.059, 1506.859 571.818 C 1508.389 575.577, 1512.084 582.218, 1515.070 586.574 C 1518.057 590.931, 1526.125 600.148, 1533 607.056 C 1539.875 613.964, 1556.300 628.630, 1569.500 639.647 C 1582.700 650.663, 1596.954 662.912, 1601.174 666.867 C 1605.395 670.821, 1610.251 676.172, 1611.964 678.759 C 1613.677 681.345, 1615.765 685.822, 1616.604 688.708 C 1617.615 692.188, 1617.897 695.503, 1617.440 698.549 C 1617.046 701.180, 1615.686 704.408, 1614.257 706.107 C 1612.884 707.738, 1610.353 709.808, 1608.631 710.707 C 1606.552 711.793, 1602.977 712.347, 1597.992 712.356 C 1592.001 712.366, 1589.331 711.840, 1584.774 709.754 C 1581.634 708.316, 1576.783 705.006, 1573.994 702.398 C 1571.206 699.790, 1566.926 694.649, 1564.482 690.973 C 1562.038 687.297, 1558.402 680.843, 1556.402 676.631 C 1554.402 672.419, 1552.474 668.793, 1552.118 668.573 C 1551.762 668.353, 1544.503 671.303, 1535.986 675.129 C 1527.469 678.955, 1514.541 684.653, 1507.259 687.792 C 1499.976 690.932, 1494.014 693.998, 1494.009 694.607 C 1494.004 695.216, 1496.064 699.941, 1498.586 705.107 C 1501.108 710.273, 1506.028 718.775, 1509.518 724 C 1513.008 729.225, 1517.983 735.896, 1520.574 738.825 C 1523.165 741.753, 1528.168 746.331, 1531.691 748.998 C 1535.214 751.665, 1542.013 755.861, 1546.798 758.323 C 1551.584 760.784, 1558.533 763.728, 1562.241 764.864 C 1565.948 766, 1572.923 767.642, 1577.741 768.514 C 1582.558 769.386, 1592.662 770.368, 1600.194 770.696 C 1609.169 771.087, 1616.579 770.861, 1621.694 770.042 C 1625.987 769.354, 1633.100 767.663, 1637.500 766.284 C 1641.900 764.905, 1649.087 761.993, 1653.472 759.812 C 1657.857 757.631, 1663.074 754.643, 1665.066 753.173 C 1667.058 751.703, 1670.242 749.131, 1672.142 747.458 C 1674.042 745.784, 1678.233 741.308, 1681.455 737.510 C 1684.677 733.712, 1688.842 727.295, 1690.711 723.250 C 1692.579 719.206, 1695.022 712.433, 1696.139 708.198 C 1697.621 702.584, 1698.183 697.251, 1698.215 688.500 C 1698.244 680.662, 1697.688 674.110, 1696.611 669.608 C 1695.705 665.817, 1693.240 659.067, 1691.133 654.608 C 1689.027 650.148, 1685.101 643.575, 1682.408 640 C 1679.716 636.425, 1673.685 629.500, 1669.006 624.611 C 1664.328 619.722, 1653.300 609.354, 1644.500 601.571 C 1635.700 593.787, 1623.775 583.411, 1618 578.513 C 1612.225 573.614, 1603.567 566.050, 1598.761 561.705 C 1593.954 557.359, 1587.991 551.102, 1585.509 547.801 C 1583.028 544.499, 1580.319 539.464, 1579.489 536.611 C 1578.153 532.016, 1578.150 530.857, 1579.463 526.435 C 1580.364 523.404, 1582.282 520.149, 1584.352 518.144 C 1586.374 516.184, 1589.474 514.456, 1591.977 513.894 C 1594.297 513.373, 1597.839 513.240, 1599.848 513.599 C 1601.856 513.959, 1605.836 515.341, 1608.690 516.671 C 1611.772 518.106, 1615.909 521.308, 1618.875 524.553 C 1621.622 527.559, 1625.890 533.276, 1628.359 537.259 C 1630.829 541.242, 1634.072 547.497, 1635.566 551.161 C 1638.282 557.821, 1638.282 557.821, 1645.391 554.565 C 1649.301 552.773, 1661.612 547.112, 1672.750 541.983 C 1687.316 535.276, 1693 532.189, 1693 530.983 C 1693 530.062, 1691.715 525.751, 1690.143 521.404 C 1688.572 517.057, 1685.811 510.575, 1684.007 507 C 1682.202 503.425, 1678.906 497.800, 1676.682 494.500 C 1674.457 491.200, 1669.681 485.398, 1666.069 481.606 C 1662.456 477.814, 1655.564 472.109, 1650.753 468.929 C 1645.942 465.750, 1638.517 461.812, 1634.253 460.179 C 1629.989 458.547, 1622.900 456.475, 1618.500 455.576 C 1614.100 454.676, 1604.425 453.736, 1597 453.487 C 1587.567 453.170, 1581.169 453.477, 1575.763 454.506 M 1826.500 453.656 C 1824.850 453.853, 1819.900 454.492, 1815.500 455.078 C 1811.100 455.663, 1803.486 457.478, 1798.580 459.109 C 1793.673 460.741, 1786.208 463.871, 1781.991 466.066 C 1777.773 468.260, 1771.433 472.438, 1767.903 475.350 C 1764.372 478.262, 1758.923 483.988, 1755.793 488.074 C 1752.663 492.161, 1748.289 499.375, 1746.071 504.106 C 1743.854 508.838, 1740.733 517.837, 1739.136 524.104 C 1737.538 530.372, 1735.654 540.803, 1734.949 547.284 C 1734.170 554.454, 1734.028 559.428, 1734.588 559.988 C 1735.093 560.493, 1745.631 561.369, 1758.004 561.933 C 1770.377 562.497, 1788.263 563.263, 1797.750 563.635 C 1812.222 564.204, 1815.003 564.086, 1815.020 562.906 C 1815.031 562.133, 1815.686 555.145, 1816.476 547.378 C 1817.267 539.612, 1818.675 531.287, 1819.606 528.878 C 1820.538 526.470, 1822.448 523.255, 1823.852 521.734 C 1825.256 520.213, 1828.194 518.486, 1830.381 517.897 C 1832.568 517.308, 1836.204 517.103, 1838.461 517.442 C 1840.718 517.780, 1843.952 518.900, 1845.646 519.931 C 1847.361 520.974, 1849.785 523.953, 1851.113 526.652 C 1853.409 531.315, 1853.500 532.338, 1853.500 553.417 C 1853.500 575.333, 1853.500 575.333, 1834.495 582.514 C 1824.043 586.463, 1809.629 592.369, 1802.465 595.638 C 1795.301 598.908, 1786.477 603.239, 1782.857 605.263 C 1779.238 607.287, 1774.023 610.644, 1771.269 612.722 C 1768.515 614.800, 1764.515 618.102, 1762.381 620.060 C 1760.246 622.018, 1755.788 626.539, 1752.474 630.107 C 1749.160 633.675, 1744.393 639.723, 1741.881 643.547 C 1739.370 647.371, 1736.092 653.569, 1734.598 657.319 C 1733.104 661.070, 1731.001 668.171, 1729.925 673.101 C 1728.699 678.719, 1727.929 686.250, 1727.862 693.282 C 1727.804 699.452, 1728.265 707.200, 1728.888 710.500 C 1729.511 713.800, 1730.672 718.646, 1731.468 721.268 C 1732.264 723.891, 1734.260 728.854, 1735.903 732.297 C 1737.547 735.741, 1741.127 741.511, 1743.859 745.120 C 1746.591 748.729, 1751.946 753.995, 1755.759 756.821 C 1759.572 759.648, 1765.574 763.293, 1769.096 764.920 C 1772.618 766.548, 1779.100 768.609, 1783.500 769.500 C 1787.900 770.392, 1794.959 771.114, 1799.186 771.105 C 1803.414 771.095, 1809.714 770.355, 1813.186 769.460 C 1816.659 768.564, 1822.039 766.483, 1825.142 764.834 C 1828.246 763.185, 1833.274 759.618, 1836.316 756.906 C 1839.358 754.195, 1843.398 749.844, 1845.295 747.238 C 1847.191 744.632, 1850.316 739.575, 1852.240 736 C 1854.163 732.425, 1856.030 728.263, 1856.388 726.750 C 1856.745 725.237, 1857.420 724, 1857.887 724 C 1858.354 724, 1858.980 725.688, 1859.277 727.750 C 1859.574 729.813, 1860.778 738.250, 1861.953 746.500 C 1863.127 754.750, 1864.511 762.518, 1865.028 763.762 C 1865.968 766.024, 1865.968 766.024, 1903.734 765.762 C 1941.500 765.500, 1941.500 765.500, 1941.429 762 C 1941.389 760.075, 1940.538 751.075, 1939.536 742 C 1937.954 727.660, 1937.626 712.408, 1937.035 625.500 C 1936.355 525.500, 1936.355 525.500, 1933.746 516.433 C 1932.311 511.446, 1929.986 504.764, 1928.580 501.585 C 1927.174 498.406, 1923.980 492.731, 1921.482 488.974 C 1918.985 485.217, 1913.579 479.003, 1909.470 475.166 C 1904.098 470.149, 1899.401 466.914, 1892.750 463.652 C 1887.662 461.157, 1880.350 458.199, 1876.500 457.080 C 1872.650 455.960, 1865.687 454.584, 1861.026 454.022 C 1856.366 453.460, 1847.366 453.067, 1841.026 453.150 C 1834.687 453.232, 1828.150 453.460, 1826.500 453.656 M 819.870 455.071 C 816.773 455.526, 811.667 456.803, 808.522 457.908 C 805.376 459.013, 800.604 461.329, 797.916 463.054 C 795.228 464.778, 789.701 469.728, 785.633 474.052 C 781.565 478.376, 774.817 487.049, 770.637 493.326 C 766.458 499.602, 762.756 505.471, 762.412 506.369 C 762.068 507.266, 761.497 508, 761.143 508 C 760.789 508.001, 760.597 496.980, 760.715 483.511 C 760.930 459.021, 760.930 459.021, 758.708 458.463 C 757.487 458.156, 738.040 458.039, 715.494 458.203 C 674.500 458.500, 674.500 458.500, 674.500 612 C 674.500 765.500, 674.500 765.500, 717.500 765.500 C 760.500 765.500, 760.500 765.500, 760.500 665.960 C 760.500 569.769, 760.564 566.321, 762.405 563.460 C 763.454 561.832, 767.321 557.575, 770.999 554 C 774.678 550.425, 780.570 545.799, 784.094 543.719 C 787.617 541.640, 792.975 539.167, 796 538.223 C 799.721 537.063, 804.897 536.507, 812 536.504 C 820.136 536.501, 824.125 537.011, 829.717 538.769 C 833.687 540.017, 837.625 541.302, 838.467 541.626 C 839.830 542.149, 840 537.422, 840 499.126 C 840 456.038, 840 456.038, 837.750 455.579 C 836.513 455.327, 833.250 454.924, 830.500 454.683 C 827.750 454.442, 822.966 454.617, 819.870 455.071 M 993.398 459.406 C 993.096 460.192, 994.428 466.385, 996.357 473.168 C 998.286 479.951, 1003.694 499.225, 1008.374 516 C 1013.054 532.775, 1023.915 571.700, 1032.508 602.500 C 1041.101 633.300, 1052.839 675.271, 1058.591 695.768 C 1064.344 716.265, 1070.133 737.640, 1071.455 743.268 C 1072.778 748.896, 1074.356 757.158, 1074.961 761.630 C 1075.755 767.492, 1075.760 771.118, 1074.978 774.630 C 1074.382 777.308, 1072.924 780.923, 1071.738 782.662 C 1070.552 784.401, 1067.811 786.973, 1065.646 788.376 C 1063.482 789.780, 1058.513 791.629, 1054.605 792.486 C 1050.697 793.343, 1042.775 794.372, 1037 794.772 C 1026.500 795.500, 1026.500 795.500, 1026.500 825 C 1026.500 854.500, 1026.500 854.500, 1044 854.458 C 1053.625 854.435, 1065.325 853.847, 1070 853.152 C 1074.675 852.457, 1082.100 850.973, 1086.500 849.853 C 1090.900 848.733, 1099 845.601, 1104.500 842.892 C 1110 840.183, 1117.296 835.726, 1120.714 832.987 C 1124.131 830.248, 1129.234 824.968, 1132.053 821.254 C 1134.872 817.539, 1139.142 810.450, 1141.541 805.500 C 1143.940 800.550, 1147.075 792.900, 1148.508 788.500 C 1149.941 784.100, 1152.693 773.750, 1154.624 765.500 C 1156.555 757.250, 1158.976 746.675, 1160.002 742 C 1161.029 737.325, 1165.518 717.300, 1169.978 697.500 C 1174.438 677.700, 1182.537 641.700, 1187.975 617.500 C 1193.413 593.300, 1201.517 557.300, 1205.983 537.500 C 1210.449 517.700, 1215.876 493.400, 1218.044 483.500 C 1220.212 473.600, 1222.389 464.063, 1222.882 462.306 C 1223.375 460.549, 1223.528 458.862, 1223.223 458.556 C 1222.917 458.250, 1204.797 458, 1182.956 458 C 1152.359 458, 1143.027 458.287, 1142.297 459.250 C 1141.776 459.938, 1139.706 470.625, 1137.698 483 C 1135.690 495.375, 1130.444 527.550, 1126.040 554.500 C 1121.637 581.450, 1117.126 608.697, 1116.017 615.048 C 1114.908 621.399, 1113.993 627.924, 1113.985 629.548 C 1113.976 631.172, 1113.608 633.070, 1113.165 633.767 C 1112.691 634.514, 1109.222 620.790, 1104.698 600.267 C 1100.483 581.145, 1095.026 556.275, 1092.571 545 C 1090.116 533.725, 1085.561 512.800, 1082.450 498.500 C 1079.338 484.200, 1076.023 469.350, 1075.084 465.500 C 1073.376 458.500, 1073.376 458.500, 1033.661 458.239 C 999.984 458.017, 993.863 458.194, 993.398 459.406 M 1366 618.922 C 1361.875 621.624, 1355.362 626.470, 1351.526 629.693 C 1347.691 632.915, 1342.199 638.465, 1339.323 642.026 C 1336.215 645.873, 1332.769 651.746, 1330.831 656.500 C 1327.693 664.195, 1327.567 665.034, 1327.534 678.500 C 1327.502 691.819, 1327.639 692.800, 1330.351 698.670 C 1331.919 702.064, 1334.174 705.755, 1335.363 706.872 C 1336.552 707.988, 1339.721 709.874, 1342.405 711.061 C 1346.275 712.773, 1348.321 713.082, 1352.288 712.556 C 1355.039 712.191, 1358.962 711.040, 1361.006 709.997 C 1363.050 708.954, 1367.035 705.739, 1369.861 702.853 C 1375 697.605, 1375 697.605, 1375 655.803 C 1375 632.811, 1374.662 614.002, 1374.250 614.005 C 1373.838 614.008, 1370.125 616.220, 1366 618.922 M 1842.512 620.768 C 1837.018 624.471, 1828.837 631.175, 1824.331 635.667 C 1817.768 642.208, 1815.348 645.492, 1812.172 652.167 C 1809.991 656.750, 1807.650 663.584, 1806.971 667.354 C 1806.260 671.295, 1805.956 677.881, 1806.255 682.854 C 1806.541 687.609, 1807.457 693.437, 1808.290 695.805 C 1809.122 698.172, 1811.031 701.880, 1812.531 704.044 C 1814.261 706.542, 1817.226 708.942, 1820.647 710.616 C 1825.225 712.856, 1826.809 713.150, 1831.164 712.573 C 1833.983 712.199, 1838.101 710.969, 1840.313 709.840 C 1842.526 708.711, 1846.511 705.555, 1849.168 702.827 C 1854 697.867, 1854 697.867, 1854 655.933 C 1854 632.870, 1853.662 614.008, 1853.250 614.018 C 1852.838 614.028, 1848.005 617.065, 1842.512 620.768" stroke="none" fill="#fafafa" fill-rule="evenodd"/></svg>